<svg xmlns="http://www.w3.org/2000/svg" viewBox="0 0 1440 900" width="1440" height="900">
  <!-- 陈年老茶 — 夜深茶暖，醇厚温润 -->
  <g fill="none" stroke="#A09070" stroke-linecap="round">
    <!-- 茶杯 + 茶烟（整体放大 180%，移至画面左侧） -->
    <g transform="translate(150, 580) scale(1.8) translate(-1300, -640)">
      <!-- 中式矮胖玻璃茶杯（杯身微收，小圈足，陈年琥珀） -->
      <g transform="matrix(1 0 0 -1 0 1470)">
        <!-- 杯身轮廓：开口比杯底略宽，矮胖 -->
        <path d="M1278,750 L1281,730 L1319,730 L1322,750 Z" stroke-width="1.5" opacity="0.12"/>
        <!-- 杯身底部横线 -->
        <path d="M1281,730 L1319,730" stroke-width="1.5" opacity="0.12"/>
        <!-- 圈足（底座） — 明显收窄 -->
        <path d="M1281,730 L1289,727 L1311,727 L1319,730" stroke-width="1.5" opacity="0.12"/>
        <path d="M1289,727 L1311,727" stroke-width="1.5" opacity="0.12"/>
        <!-- 杯口椭圆（透视） -->
        <ellipse cx="1300" cy="750" rx="22" ry="3.5" fill="#A09070" opacity="0.06" stroke="none"/>

        <!-- 透明茶汤（透光琥珀色） — 三分残 -->
        <path d="M1281,730 L1319,730 L1321,736 L1279,736 Z" fill="#C89050" opacity="0.12" stroke="none"/>
      </g>
      
      <!-- 暖烟残尽 — 夜深茶凉，袅袅伸展 -->
      <g transform="translate(1260, 706)">
        <g>
          <!-- 次烟（慢） -->
          <path d="M48,8 Q43,2 48,-6 Q53,-14 48,-20" stroke-width="0.8"
                stroke-dasharray="50" stroke-dashoffset="50" opacity="0.18">
            <animate attributeName="stroke-dashoffset"
              values="50; 0; 0" keyTimes="0; 0.45; 1"
              dur="10s" repeatCount="indefinite"/>
            <animate attributeName="opacity"
              values="0.18; 0.18; 0; 0" keyTimes="0; 0.50; 0.85; 1"
              dur="10s" repeatCount="indefinite"/>
          </path>
          <!-- 短烟 -->
          <path d="M35,7 Q30,0 35,-6" stroke-width="0.6"
                stroke-dasharray="20" stroke-dashoffset="20" opacity="0.18">
            <animate attributeName="stroke-dashoffset"
              values="20; 0; 0" keyTimes="0; 0.55; 1"
              dur="6s" repeatCount="indefinite"/>
            <animate attributeName="opacity"
              values="0.18; 0.18; 0; 0" keyTimes="0; 0.60; 0.85; 1"
              dur="6s" repeatCount="indefinite"/>
          </path>
        </g>
      </g>
    </g>
    
    <!-- 茶山层叠 — 夜色 -->
    <path d="M0,580 C200,530 350,600 500,540 C650,480 800,580 1000,530 C1200,480 1400,560 1440,540 L1440,900 L0,900 Z" 
          fill="#6A7A5A" opacity="0.08" stroke="none"/>
    <path d="M0,660 C300,620 500,670 700,620 C900,570 1100,650 1440,610 L1440,900 L0,900 Z" 
          fill="#4A5A3A" opacity="0.05" stroke="none"/>    
  </g>
</svg>
