<svg xmlns="http://www.w3.org/2000/svg" viewBox="0 0 1440 900" width="1440" height="900">
  <!-- Klein Blue 夜蓝 — 毕加索晚年风格的几何色块（暗色版） -->
  
  <!-- 底色 — 深蓝黑 -->
  <rect width="1440" height="900" fill="#0B1120"/>

  <!-- 左下大圆 — 克莱因蓝 -->
  <circle cx="-100" cy="800" r="500" fill="#2B59FF" opacity="0.10"/>

  <!-- 几何色块组合 -->
  <g opacity="0.25">
    <!-- 左上的克莱因蓝色块（发光） -->
    <path d="M0,0 L300,0 L350,160 L220,220 L0,200 Z" fill="#2B59FF"/>
    <!-- 右上暗紫红色块 -->
    <path d="M1150,0 L1440,0 L1440,250 L1050,200 Z" fill="#2A1535"/>
    <!-- 中左靛蓝色块 -->
    <path d="M60,320 L280,280 L360,420 L100,450 Z" fill="#15204A"/>
    <!-- 中央克莱因蓝色块（发光） -->
    <path d="M380,220 L640,200 L700,400 L360,480 Z" fill="#2B59FF"/>
    <!-- 右中暗红块 -->
    <path d="M880,300 L1180,240 L1260,440 L830,520 Z" fill="#3A1A28"/>
    <!-- 下方深蓝块 -->
    <path d="M0,620 L320,570 L300,770 L0,800 Z" fill="#0D1528"/>
    <!-- 右下克莱因蓝色块 -->
    <path d="M980,570 L1440,520 L1440,770 L880,770 Z" fill="#1A3A8A"/>
    <!-- 底部深色块 -->
    <path d="M320,770 L880,770 L1000,900 L180,900 Z" fill="#060C18"/>
  </g>

  <!-- 小色块点缀 -->
  <g opacity="0.18">
    <rect x="40" y="500" width="35" height="35" rx="3" fill="#2A1535" transform="rotate(-15, 57, 517)"/>
    <rect x="580" y="540" width="30" height="30" rx="3" fill="#15204A" transform="rotate(20, 595, 555)"/>
    <rect x="1280" y="370" width="35" height="35" rx="3" fill="#3A1A28" transform="rotate(-10, 1297, 387)"/>
    <circle cx="430" cy="570" r="10" fill="#2B59FF"/>
    <circle cx="760" cy="500" r="7" fill="#2A1535"/>
    <rect x="700" y="140" width="22" height="22" rx="2" fill="#15204A" transform="rotate(30, 711, 151)"/>
    <circle cx="140" cy="460" r="5" fill="#3A1A28"/>
  </g>
</svg>
