<svg xmlns="http://www.w3.org/2000/svg" viewBox="0 0 1440 900" width="1440" height="900">
  <!-- author: d2school -->
  <!-- DeepSeek 路 鏄熻景澶ф捣 鈥?娴峰ぉ鎴愪竴鑹?-->

  <!-- 澶╃┖娓愬彉 -->
  <linearGradient id="sky" x1="0" y1="0" x2="0" y2="1">
    <stop offset="0%" stop-color="#EAF0F8"/>
    <stop offset="50%" stop-color="#D6E2EE"/>
    <stop offset="100%" stop-color="#C8D6E8"/>
  </linearGradient>
  <rect width="1440" height="900" fill="url(#sky)"/>

  <!-- 澶ф捣娓愬彉 -->
  <linearGradient id="sea" x1="0" y1="0" x2="0" y2="1">
    <stop offset="0%" stop-color="#C8D6E8"/>
    <stop offset="30%" stop-color="#B0C4DC"/>
    <stop offset="60%" stop-color="#9AB0CC"/>
    <stop offset="100%" stop-color="#7A96B8"/>
  </linearGradient>
  <rect x="0" y="420" width="1440" height="480" fill="url(#sea)"/>

  <!-- 娴峰ぉ浜ょ晫鏌斿厜 -->
  <linearGradient id="merge" x1="0" y1="0" x2="0" y2="1">
    <stop offset="0%" stop-color="#D6E2EE" stop-opacity="0.5"/>
    <stop offset="50%" stop-color="#C8D6E8" stop-opacity="0.3"/>
    <stop offset="100%" stop-color="#B0C4DC" stop-opacity="0"/>
  </linearGradient>
  <rect x="0" y="380" width="1440" height="80" fill="url(#merge)"/>

  <!-- 娴烽笩 鈥?澶╃┖锛?.44 鍚庣紦鎱㈡媿缈咃紝杩滃幓鍚庨潤姝級 -->
  <g fill="none" stroke="#5A7AA0" stroke-width="1.2" stroke-linecap="round" stroke-linejoin="round" opacity="0.20" transform="translate(-80, 128)">

    <!-- 楦? -->
    <g>
      <animateTransform attributeName="transform" type="scale"
        values="1,1;1,1;1,0.94;1,1;1,0.94;1,1;1,0.94;1,1;1,0.94;1,1;1,0.94;1,1;1,1"
        keyTimes="0;0.44;0.45;0.46;0.47;0.48;0.49;0.50;0.51;0.52;0.53;0.54;1"
        dur="28s" repeatCount="indefinite"/>
      <path d="M280,220 Q290,210 300,220 Q310,210 320,220"/>
    </g>

    <!-- 楦? -->
    <g>
      <animateTransform attributeName="transform" type="scale"
        values="1,1;1,1;1,0.94;1,1;1,0.94;1,1;1,0.94;1,1;1,0.94;1,1;1,0.94;1,1;1,1"
        keyTimes="0;0.445;0.455;0.465;0.475;0.485;0.495;0.505;0.515;0.525;0.535;0.545;1"
        dur="28s" repeatCount="indefinite"/>
      <path d="M340,200 Q348,192 356,200 Q364,192 372,200"/>
    </g>

    <!-- 楦? -->
    <g>
      <animateTransform attributeName="transform" type="scale"
        values="1,1;1,1;1,0.94;1,1;1,0.94;1,1;1,0.94;1,1;1,0.94;1,1;1,0.94;1,1;1,1"
        keyTimes="0;0.45;0.46;0.47;0.48;0.49;0.50;0.51;0.52;0.53;0.54;0.55;1"
        dur="28s" repeatCount="indefinite"/>
      <path d="M260,240 Q266,233 272,240 Q278,233 284,240"/>
    </g>

    <!-- 楦? -->
    <g transform="translate(15, -10)">
      <g>
        <animateTransform attributeName="transform" type="scale"
          values="1,1;1,1;1,0.94;1,1;1,0.94;1,1;1,0.94;1,1;1,0.94;1,1;1,0.94;1,1;1,1"
          keyTimes="0;0.44;0.45;0.46;0.47;0.48;0.49;0.50;0.51;0.52;0.53;0.54;1"
          dur="28s" repeatCount="indefinite"/>
        <path d="M520,180 Q530,170 540,180 Q550,170 560,180"/>
      </g>
    </g>

    <!-- 楦? -->
    <g transform="translate(15, -10)">
      <g>
        <animateTransform attributeName="transform" type="scale"
          values="1,1;1,1;1,0.94;1,1;1,0.94;1,1;1,0.94;1,1;1,0.94;1,1;1,0.94;1,1;1,1"
          keyTimes="0;0.455;0.465;0.475;0.485;0.495;0.505;0.515;0.525;0.535;0.545;0.555;1"
          dur="28s" repeatCount="indefinite"/>
        <path d="M480,195 Q485,189 490,195 Q495,189 500,195"/>
      </g>
    </g>

  </g>

  <g transform="translate(0, 20)">
  <!-- 娴峰矝 鈥?鍙充笅瑙?-->
  <g opacity="0.35" transform="translate(1245, 695) scale(0.90, 1) rotate(-3) translate(-1245, -695)">
    <!-- 宀涜韩娓愬彉锛堟瘮娴锋按鐣ユ繁锛?-->
    <linearGradient id="islandGrad" x1="0" y1="0" x2="1" y2="0">
      <stop offset="0%" stop-color="#8AA8C8"/>
      <stop offset="60%" stop-color="#5A7AA0"/>
      <stop offset="100%" stop-color="#1A3050"/>
    </linearGradient>
    <!-- 娴峰矝杞粨锛氬洓鍛ㄧ幆娴风殑鐙珛宀涘笨 -->
    <path d="M1370,791
             C1315,781 1280,758 1070,696
             C1050,684 1060,662 1085,642
             C1105,616 1135,612 1160,606
             C1190,599 1205,597 1215,599
             C1420,716 1410,741 1395,759
             C1400,776 1378,782 1370,791
             Z"
          fill="url(#islandGrad)"/>
  </g>

  <!-- 椋炴満璺戦亾 鈥?宓屼簬宀涘潯涔嬩笂 -->
  <!-- 骞宠鍥涜竟褰細涓婇暱杈瑰悜鍙虫媺锛屼笅闀胯竟鍚戝乏鎷?-->
  <g opacity="0.45" transform="translate(1232, 696.2) scale(0.90) translate(-1232, -696.2)">
    <!-- 璺戦亾鍩洪潰 -->
    <path d="M1123.1,648.8 L1105.1,684.8 L1340.9,743.6 L1358.9,707.6 Z"
          fill="#7A9AB8"/>
    <!-- 涓婇暱杈?-->
    <line x1="1123.1" y1="648.8" x2="1358.9" y2="707.6" stroke="#FFFFFF" stroke-width="1.5" opacity="0.70"/>
    <!-- 涓嬮暱杈?-->
    <line x1="1105.1" y1="684.8" x2="1340.9" y2="743.6" stroke="#FFFFFF" stroke-width="1.5" opacity="0.70"/>
    <!-- 铏氱嚎涓績绾?-->
    <line x1="1114.1" y1="666.8" x2="1349.9" y2="725.6" stroke="#FFFFFF" stroke-width="0.8" stroke-dasharray="5,5" opacity="0.55"/>
  </g>

  <!-- 鎴樻枟鏈?鈥?璺戦亾鍙崇锛屾満澶存湞宸﹀緟璧烽锛堝惈璧烽鍔ㄧ敾锛?-->
  <g>
    <animateTransform attributeName="transform" type="translate"
      values="0,0; 0,0; -100,-25; -200,-80; -900,-420; -1450,-450; -1450,-450; 380,140; 100,25; 10,3; 0,0; 0,0"
      keyTimes="0; 0.25; 0.30; 0.35; 0.48; 0.54; 0.56; 0.60; 0.78; 0.86; 0.90; 1"
      dur="28s" repeatCount="indefinite"/>
    <animate attributeName="opacity"
      values="1; 1; 1; 1; 1; 0.5; 0; 0; 1; 1; 1; 1"
      keyTimes="0; 0.25; 0.30; 0.35; 0.44; 0.48; 0.56; 0.60; 0.78; 0.86; 0.90; 1"
      dur="28s" repeatCount="indefinite"/>
    <g transform="translate(1291, 710) scale(0.96) rotate(14)">
      <!-- 鏈鸿韩锛堜粠涓夎缈奸《瑙掑埌灏剧考鍩哄骇锛?-->
      <rect x="-10" y="-1.8" width="19" height="3.6" rx="1" fill="#E8EEF4" stroke="#8AA8C8" stroke-width="0.4"/>
      <!-- 鏈哄ご閿ワ紙浠庨《瑙掑埌閽堝皷锛岄€愭笎鏀剁獎锛?-->
      <path d="M-10,-1.8 L-15,-0.3 L-17.5,0 L-15,0.3 L-10,1.8 Z" fill="#E8EEF4" stroke="#8AA8C8" stroke-width="0.4"/>
      <!-- 涓夎涓荤考锛堢瓑鑵颁笁瑙掞紝鑵扮嚎鍐呭嚬锛?-->
      <path d="M-10,0 Q-5,-2 6,-11 L6,11 Q-5,2 -10,0 Z"
            fill="#E8EEF4" stroke="#8AA8C8" stroke-width="0.4"/>
      <!-- 灏剧考锛堢缉灏忕増涓夎缈硷紝鐩寸嚎鑵帮級 -->
      <polygon points="5,0 9,-3.5 9,3.5" fill="#E8EEF4" stroke="#8AA8C8" stroke-width="0.4"/>
      <!-- 灏鹃儴鏀剁獎鑷冲柗姘斿彛 -->
      <path d="M9,-1.8 L11,-0.6 L11,0.6 L9,1.8 Z" fill="#E8EEF4" stroke="#8AA8C8" stroke-width="0.4"/>
      <!-- 鍠锋皵鍙?-->
      <rect x="11" y="-0.5" width="0.8" height="1" rx="0.3" fill="#CC3333"/>
      <!-- 椹鹃┒鑸?-->
      <ellipse cx="-12" cy="0" rx="2.5" ry="1" fill="#8AA8C8" opacity="0.35"/>
    </g>
  </g>

  <!-- 鐏 鈥?绔嬩簬宀涢《 -->
  <g opacity="0.56">
    <!-- 鐏濉旇韩娓愬彉锛堝簳娣遍《浜紝涓庡矝闈㈣嚜鐒惰繃娓★級 -->
    <linearGradient id="towerGrad" x1="0" y1="0" x2="0" y2="1">
      <stop offset="0%" stop-color="#D6E2EE"/>
      <stop offset="60%" stop-color="#B0C4DC"/>
      <stop offset="100%" stop-color="#6A8AB0"/>
    </linearGradient>
    <!-- 鐏濉旇韩锛堟褰㈤敟浣擄紝搴曠宓屽叆宀涢潰锛?-->
    <path d="M1191,624 Q1201,630 1211,624 L1209,592 L1193,592 Z"
          fill="url(#towerGrad)" stroke="#8AA8C8" stroke-width="0.8"/>
    <!-- 濉旇韩妯汗瑁呴グ -->
    <line x1="1192" y1="612" x2="1210" y2="612" stroke="#8AA8C8" stroke-width="0.5"/>
    <!-- 涓浗鍥芥棗 -->
    <g>
      <rect x="1193" y="602" width="16" height="12" fill="#DE2910" stroke="#8AA8C8" stroke-width="0.4"/>
      <!-- 澶т簲瑙掓槦锛堝乏渚э級 -->
      <polygon points="1196,603.5 1196.7,605.2 1198.3,605.2 1197,606.2 1197.5,608 1196,606.9 1194.5,608 1195,606.2 1193.7,605.2 1195.3,605.2" fill="#FFDE00"/>
      <!-- 鍥涢灏忔槦锛堝彸渚у姬绾挎帓鍒楋級 -->
      <polygon points="1199.5,602.8 1199.7,603.7 1200.5,603.7 1199.8,604.2 1200,605.2 1199.5,604.6 1199,605.2 1199.2,604.2 1198.5,603.7 1199.3,603.7" fill="#FFDE00"/>
      <polygon points="1200.3,604.5 1200.5,605.2 1201.2,605.2 1200.6,605.6 1200.8,606.5 1200.3,606 1199.8,606.5 1200,605.6 1199.4,605.2 1200.1,605.2" fill="#FFDE00"/>
      <polygon points="1199.5,606.2 1199.7,606.9 1200.3,606.9 1199.8,607.3 1200,608 1199.5,607.5 1199,608 1199.2,607.3 1198.7,606.9 1199.3,606.9" fill="#FFDE00"/>
      <polygon points="1198.3,607 1198.5,607.6 1199,607.6 1198.6,608 1198.7,608.5 1198.3,608.2 1197.9,608.5 1198,608 1197.6,607.6 1198.1,607.6" fill="#FFDE00"/>
    </g>
    <line x1="1192" y1="602" x2="1210" y2="602" stroke="#8AA8C8" stroke-width="0.5"/>
    <!-- 鐏锛堥《閮ㄧ殑鐜荤拑鎴匡級 -->
    <rect x="1193" y="585" width="16" height="7" rx="1" fill="#D6C8A8" stroke="#8AA8C8" stroke-width="0.7"/>
    <!-- 鐏鍙戝厜锛堟洿鏆栵級 -->
    <rect x="1194" y="586" width="14" height="5" rx="0.8" fill="#FFE088" opacity="0.50"/>
    <!-- 灞嬮《 -->
    <path d="M1191,585 L1201,579 L1211,585 Z" fill="#8AA8C8"/>
    <!-- 鐏宸︿晶鍏夋檿锛堝厜鏉熷嚭鍙ｅ鎺哄叆鐏厜鑹诧級 -->
    <line x1="1193" y1="586" x2="1193" y2="591" stroke="#FFE088" stroke-width="0.8" opacity="0.50"/>
    <!-- 鈽?鍏夋潫缁勶紙缁曠伅瀹ゅ簳閮ㄦ棆杞壂鎻忥級  銆愭墜宸ヨ皟鏁村尯銆?-->
    <!-- 鈽?鏃嬭浆涓績: (1201, 590) 鈥?鍏夋潫鎽嗗姩杞村績 -->
    <!-- 鈽?鍏夋潫褰㈢姸: M1201,585  L858,490  L846,591  L1201,591  Z -->
    <!--    - M1201,585 : 鍑哄彂鐐逛笂鏂癸紙鐏椤堕儴锛?-->
    <!--    - L858,490  : 涓婅竟杩滅锛堣皟X鎺у埗闀垮害锛岃皟Y鎺у埗涓婅竟瑙掑害锛?-->
    <!--    - L846,591  : 涓嬭竟杩滅锛堣皟X鎺у埗闀垮害锛岃皟Y鎺у埗涓嬭竟瑙掑害锛?-->
    <!--    - L1201,591 : 鍑哄彂鐐逛笅鏂癸紙鐏搴曢儴锛?-->
    <!--    - 鏃嬭浆瑙掑害 卤3 鍙敼涓?卤5 绛夎皟鎵弿鑼冨洿 -->
    <!-- 鍏夋潫娓愬彉锛堜寒搴︿粠杩戝埌杩滈€掑噺锛?-->
    <linearGradient id="beamFade" x1="1" y1="0" x2="0" y2="0">
      <stop offset="0%" stop-color="#FFE088" stop-opacity="0.82"/>
      <stop offset="30%" stop-color="#FFEE99" stop-opacity="0.30"/>
      <stop offset="60%" stop-color="#FFEEAA" stop-opacity="0.12"/>
      <stop offset="100%" stop-color="#FFEEBB" stop-opacity="0.04"/>
    </linearGradient>
    <!-- 鍏夋潫缁勶紙鐙珛浜庣伅濉旂粍閫忔槑搴︼級 -->
    <g opacity="1">
      <animateTransform attributeName="transform" type="rotate"
        values="-5 1192 590; 5 1192 590; -5 1192 590"
        keyTimes="0; 0.5; 1"
        dur="6s" repeatCount="indefinite"/>
      <!-- 鍗曟潫鍏夋煴锛堟笎鍙樻贰鍑猴紝宸︾紭瀵归綈鐏澶栧锛?-->
      <path d="M1192,586 L858,490 L846,591 L1192,591 Z"
            fill="url(#beamFade)"/>
    </g>
  </g>
  </g>

  <!-- 鐧借壊椋炴搏 鈥?娴姳 -->
  <g fill="#FFFFFF">
    <!-- 杩滄氮椋炴搏 -->
    <g opacity="0.15">
      <circle cx="200" cy="510" r="1.5"/><circle cx="206" cy="506" r="1"/><circle cx="194" cy="508" r="1.2"/>
      <circle cx="600" cy="495" r="1.5"/><circle cx="608" cy="490" r="1"/><circle cx="594" cy="492" r="1.2"/>
      <circle cx="1000" cy="505" r="1.5"/><circle cx="1008" cy="500" r="1"/><circle cx="994" cy="502" r="1.2"/>
      <circle cx="1300" cy="515" r="1.3"/><circle cx="1308" cy="510" r="1"/><circle cx="1294" cy="512" r="1"/>
    </g>

    <!-- 涓氮椋炴搏 -->
    <g opacity="0.25">
      <circle cx="100" cy="555" r="2"/><circle cx="110" cy="548" r="1.5"/><circle cx="92" cy="550" r="1.8"/><circle cx="106" cy="544" r="1"/><circle cx="116" cy="552" r="1.2"/>
      <circle cx="400" cy="540" r="2"/><circle cx="410" cy="534" r="1.5"/><circle cx="392" cy="536" r="1.8"/><circle cx="406" cy="530" r="1"/><circle cx="416" cy="538" r="1.2"/>
      <circle cx="700" cy="545" r="2"/><circle cx="710" cy="538" r="1.5"/><circle cx="692" cy="540" r="1.8"/><circle cx="706" cy="534" r="1"/><circle cx="716" cy="542" r="1.2"/>
      <circle cx="1100" cy="550" r="2"/><circle cx="1110" cy="544" r="1.5"/><circle cx="1092" cy="546" r="1.8"/><circle cx="1106" cy="540" r="1"/><circle cx="1116" cy="548" r="1.2"/>
    </g>

    <!-- 涓绘氮椋炴搏锛堟渶楂樻氮 - 涓ぎ锛?-->
    <g opacity="0.35">
      <circle cx="720" cy="530" r="2.5"/><circle cx="730" cy="522" r="2"/><circle cx="710" cy="525" r="2.2"/><circle cx="736" cy="528" r="1.5"/><circle cx="704" cy="530" r="1.8"/><circle cx="726" cy="518" r="1.2"/><circle cx="714" cy="518" r="1.5"/><circle cx="740" cy="534" r="1"/><circle cx="700" cy="522" r="1.3"/>
    </g>

    <!-- 杩戞氮椋炴搏 -->
    <g opacity="0.30">
      <circle cx="150" cy="610" r="2.5"/><circle cx="162" cy="602" r="1.8"/><circle cx="140" cy="605" r="2"/><circle cx="158" cy="598" r="1.2"/><circle cx="168" cy="608" r="1.5"/>
      <circle cx="500" cy="600" r="2.5"/><circle cx="510" cy="592" r="1.8"/><circle cx="490" cy="595" r="2"/><circle cx="506" cy="588" r="1.2"/><circle cx="516" cy="598" r="1.5"/>
      <circle cx="900" cy="605" r="2.5"><animate attributeName="cy" values="605;590;605" dur="3s" repeatCount="indefinite"/></circle>
      <circle cx="910" cy="596" r="1.8"><animate attributeName="cy" values="596;582;596" dur="3.5s" repeatCount="indefinite"/></circle>
      <circle cx="890" cy="600" r="2"><animate attributeName="cy" values="600;586;600" dur="4s" repeatCount="indefinite"/></circle>
      <circle cx="906" cy="592" r="1.2"><animate attributeName="cy" values="592;580;592" dur="2.8s" repeatCount="indefinite"/></circle>
      <circle cx="916" cy="602" r="1.5"><animate attributeName="cy" values="602;588;602" dur="3.2s" repeatCount="indefinite"/></circle>
      <circle cx="1250" cy="610" r="2.2"/><circle cx="1260" cy="602" r="1.5"/><circle cx="1240" cy="606" r="1.8"/><circle cx="1256" cy="598" r="1"/><circle cx="1266" cy="608" r="1.3"/>
    </g>

    <!-- 鍓嶈繎娴娌?-->
    <g opacity="0.20">
      <circle cx="80" cy="680" r="2"/><circle cx="90" cy="672" r="1.5"/><circle cx="72" cy="676" r="1.8"/><circle cx="86" cy="668" r="1"/><circle cx="96" cy="678" r="1.2"/>
      <circle cx="350" cy="670" r="2"/><circle cx="360" cy="662" r="1.5"/><circle cx="342" cy="666" r="1.8"/><circle cx="356" cy="658" r="1"/><circle cx="366" cy="668" r="1.2"/>
      <circle cx="650" cy="675" r="2"/><circle cx="660" cy="666" r="1.5"/><circle cx="642" cy="670" r="1.8"/><circle cx="656" cy="662" r="1"/><circle cx="666" cy="672" r="1.2"/>
    </g>

    <!-- 搴曢儴鏈€娣卞鐨勯娌?-->
    <g opacity="0.12">
      <circle cx="200" cy="760" r="2"/><circle cx="210" cy="754" r="1.5"/><circle cx="192" cy="756" r="1.8"/><circle cx="206" cy="750" r="1.2"/>
      <circle cx="550" cy="755" r="2"/><circle cx="560" cy="748" r="1.5"/><circle cx="542" cy="752" r="1.8"/><circle cx="556" cy="745" r="1.2"/>
      <circle cx="850" cy="758" r="2"/><circle cx="860" cy="750" r="1.5"/><circle cx="842" cy="754" r="1.8"/><circle cx="856" cy="748" r="1.2"/>
    </g>
  </g>
</svg>
