п»ҝ<svg xmlns="http://www.w3.org/2000/svg" viewBox="0 0 1440 900" width="1440" height="900">
  <!-- author: d2school -->
  <!-- жөЈж»ҶвӮ¬е’ғзҙ°йҚ—жҘ…е„Ҡ -->
  
  <!-- жҗҙжӣЎеЈҠ йҲҘ?еЁЈйҒҚжҢ—йҗҸ?-->
  <rect width="1440" height="900" fill="#1A1C1E"/>

  <!-- жҗҙжӣўе„ҙйҗ”ж—ӮеҖқз»ҫгҲ еҺң йҲҘ?йҚҚеҝ”ж§ёй–ҪгҲ е·¶йҗҗеӨҢдјҖйҗЁеӢӘз¶‘йҸ…?-->
  <ellipse cx="720" cy="920" rx="800" ry="220" fill="#E8853D" opacity="0.06"/>

  <!-- е®ёгғӨз¬ҹйҚ‘зҠұз¶ҚзјҒж’ҙзҖҜ йҲҘ?ж¶“гӮ„жҷ¶йҚЁеӮңжҙҝй–ҪгҲЎз…ҙ -->
  <g opacity="0.20">
    <rect x="0" y="0" width="12" height="900" fill="#4A4E53"/>
    <rect x="1428" y="0" width="12" height="900" fill="#4A4E53"/>
  </g>

  <!-- йҚҷгӮ…еҗҖй—ӮеҪ’жҢ“ йҲҘ?йҸғе •жЈҝйҗЁеӢ«е§Ҹй–ІеҝҘзҙҷйҚҳзҶјеЁҮжқһоҶ»з¶…й”ӣ?-->
  <g transform="translate(1200, 700) scale(0.96)" opacity="0.20">
    <!-- й–ҪзҶ¶з¶Ӣжҫ¶ж §пј“ -->
    <circle cx="0" cy="0" r="100" fill="none" stroke="#E8853D" stroke-width="5"/>
    <circle cx="0" cy="0" r="90" fill="none" stroke="#E8853D" stroke-width="1.5"/>
    <!-- й–ҪзҶјжҪ°йҚҗе‘ӯж№Җ -->
    <circle cx="0" cy="0" r="82" fill="none" stroke="#E8853D" stroke-width="0.8" opacity="0.5"/>

    <!-- жӨӨе •е„ҙж¶“гӮ„йҮңй–ҫеҶ®ж‘Ҹ -->
    <ellipse cx="-30" cy="-95" rx="28" ry="18" fill="none" stroke="#E8853D" stroke-width="3"/>
    <ellipse cx="30" cy="-95" rx="28" ry="18" fill="none" stroke="#E8853D" stroke-width="3"/>

    <!-- й–ҫеҶ®ж•ң -->
    <line x1="0" y1="-95" x2="0" y2="-118" stroke="#E8853D" stroke-width="2.5"/>
    <circle cx="0" cy="-121" r="5" fill="#E8853D"/>

    <!-- 12ж¶“оҒҲжҢ“йҗҗз‘°еҹўжҗҙ?-->
    <g stroke="#E8853D" stroke-width="2.5" stroke-linecap="round">
      <g transform="rotate(0)"><line x1="0" y1="-85" x2="0" y2="-77"/></g>
      <g transform="rotate(30)"><line x1="0" y1="-85" x2="0" y2="-80"/></g>
      <g transform="rotate(60)"><line x1="0" y1="-85" x2="0" y2="-80"/></g>
      <g transform="rotate(90)"><line x1="0" y1="-85" x2="0" y2="-77"/></g>
      <g transform="rotate(120)"><line x1="0" y1="-85" x2="0" y2="-80"/></g>
      <g transform="rotate(150)"><line x1="0" y1="-85" x2="0" y2="-80"/></g>
      <g transform="rotate(180)"><line x1="0" y1="-85" x2="0" y2="-77"/></g>
      <g transform="rotate(210)"><line x1="0" y1="-85" x2="0" y2="-80"/></g>
      <g transform="rotate(240)"><line x1="0" y1="-85" x2="0" y2="-80"/></g>
      <g transform="rotate(270)"><line x1="0" y1="-85" x2="0" y2="-77"/></g>
      <g transform="rotate(300)"><line x1="0" y1="-85" x2="0" y2="-80"/></g>
      <g transform="rotate(330)"><line x1="0" y1="-85" x2="0" y2="-80"/></g>
    </g>

    <!-- йҸғе •жӢЎй”ӣе ўз…ӯз»®жҘӢзҙқйҺёеӣ§жӮңз»ҫ?0йҗҗзҷёзҙҡ -->
    <line x1="0" y1="0" x2="-25" y2="-40" stroke="#E8853D" stroke-width="4" stroke-linecap="round"/>
    <!-- йҚ’е—ӣжӢЎй”ӣе ўзІҸй—ҖеҢЎзҙқйҺёеӣ§жӮңз»ҫ?йҗҗзҷёзҙҡ -->
    <line x1="0" y1="0" x2="35" y2="-55" stroke="#E8853D" stroke-width="2.5" stroke-linecap="round"/>
    <!-- з»үжҺ—жӢЎй”ӣе ҹжё¶зјҒе—ӯзҙқе§Јеҝ•оқ—ж¶“вӮ¬йҸҚзЎ·зҙқ60з»үжҺ•жөҶж¶“вӮ¬йҚҰе ¬зҙҡ -->
    <g>
      <animateTransform attributeName="transform" type="rotate"
        values="0;6;12;18;24;30;36;42;48;54;60;66;72;78;84;90;96;102;108;114;120;126;132;138;144;150;156;162;168;174;180;186;192;198;204;210;216;222;228;234;240;246;252;258;264;270;276;282;288;294;300;306;312;318;324;330;336;342;348;354;360"
        keyTimes="0;0.016667;0.033333;0.05;0.066667;0.083333;0.1;0.116667;0.133333;0.15;0.166667;0.183333;0.2;0.216667;0.233333;0.25;0.266667;0.283333;0.3;0.316667;0.333333;0.35;0.366667;0.383333;0.4;0.416667;0.433333;0.45;0.466667;0.483333;0.5;0.516667;0.533333;0.55;0.566667;0.583333;0.6;0.616667;0.633333;0.65;0.666667;0.683333;0.7;0.716667;0.733333;0.75;0.766667;0.783333;0.8;0.816667;0.833333;0.85;0.866667;0.883333;0.9;0.916667;0.933333;0.95;0.966667;0.983333;1"
        dur="60s" repeatCount="indefinite" calcMode="discrete"/>
      <line x1="0" y1="0" x2="-20" y2="60" stroke="#E8853D" stroke-width="1" stroke-linecap="round" opacity="0.8"/>
    </g>

    <!-- ж¶“о…һзёҫжқһ?-->
    <circle cx="0" cy="0" r="5" fill="#E8853D"/>
    <circle cx="0" cy="0" r="2" fill="#1A1C1E"/>

    <!-- жҗҙжӣўе„ҙж¶“гӮ…еҪ§й‘ҙ?-->
    <path d="M-50,95 Q-55,108 -60,105" fill="none" stroke="#E8853D" stroke-width="2.5" stroke-linecap="round"/>
    <path d="M50,95 Q55,108 60,105" fill="none" stroke="#E8853D" stroke-width="2.5" stroke-linecap="round"/>
  </g>

  <!-- ж¶”п№ҖзҲў йҲҘ?йҗӯгғЁзҳ‘йҗЁеӢ«е§Ҹй–І?-->
  <g transform="translate(200,720) scale(0.88) translate(-200,-700)">
  <g opacity="0.40">
    <!-- з»—?йҸҲ?-->
    <g transform="translate(100,838) rotate(-2)">
      <rect x="0" y="0" width="210" height="22" rx="2" fill="#7B9DBF"/>
      <rect x="4" y="1" width="3" height="20" fill="#1A1C1E" opacity="0.3"/>
    </g>
    <!-- з»—?йҸҲ?-->
    <g transform="translate(108,813) rotate(1.5)">
      <rect x="0" y="0" width="195" height="25" rx="2" fill="#C49A6C"/>
      <rect x="4" y="1" width="3" height="23" fill="#1A1C1E" opacity="0.3"/>
    </g>
    <!-- з»—?йҸҲ?-->
    <g transform="translate(95,785) rotate(3)">
      <rect x="0" y="0" width="220" height="20" rx="2" fill="#8FB58F"/>
      <rect x="4" y="1" width="3" height="18" fill="#1A1C1E" opacity="0.3"/>
    </g>
    <!-- з»—?йҸҲ?-->
    <g transform="translate(112,758) rotate(-1.5)">
      <rect x="0" y="0" width="190" height="28" rx="2" fill="#BF7C7C"/>
      <rect x="4" y="1" width="3" height="26" fill="#1A1C1E" opacity="0.3"/>
    </g>
    <!-- з»—?йҸҲ?-->
    <g transform="translate(102,728) rotate(0.5)">
      <rect x="0" y="0" width="205" height="24" rx="2" fill="#9B8FBF"/>
      <rect x="4" y="1" width="3" height="22" fill="#1A1C1E" opacity="0.3"/>
    </g>
    <!-- з»—?йҸҲ?-->
    <g transform="translate(118,700) rotate(-2.5)">
      <rect x="0" y="0" width="185" height="22" rx="2" fill="#BF9B7C"/>
      <rect x="4" y="1" width="3" height="20" fill="#1A1C1E" opacity="0.3"/>
    </g>
    <!-- з»—?йҸҲ?-->
    <g transform="translate(105,672) rotate(1.8)">
      <rect x="0" y="0" width="200" height="26" rx="2" fill="#6CBFBF"/>
      <rect x="4" y="1" width="3" height="24" fill="#1A1C1E" opacity="0.3"/>
    </g>
    <!-- з»—?йҸҲ?-->
    <g transform="translate(98,644) rotate(-1)">
      <rect x="0" y="0" width="215" height="24" rx="2" fill="#A8A87C"/>
      <rect x="4" y="1" width="3" height="22" fill="#1A1C1E" opacity="0.3"/>
    </g>
    <!-- з»—?йҸҲ?-->
    <g transform="translate(115,618) rotate(2.2)">
      <rect x="0" y="0" width="188" height="22" rx="2" fill="#BF8F9B"/>
      <rect x="4" y="1" width="3" height="20" fill="#1A1C1E" opacity="0.3"/>
    </g>
    <!-- з»—?0йҸҲ?-->
    <g transform="translate(108,592) rotate(-0.8)">
      <rect x="0" y="0" width="200" height="28" rx="2" fill="#7CA8BF"/>
      <rect x="4" y="1" width="3" height="26" fill="#1A1C1E" opacity="0.3"/>
    </g>
    <!-- з»—?1йҸҲ?-->
    <g transform="translate(100,566) rotate(1.2)">
      <rect x="0" y="0" width="210" height="20" rx="2" fill="#8FBF9B"/>
      <rect x="4" y="1" width="3" height="18" fill="#1A1C1E" opacity="0.3"/>
    </g>
    <!-- з»—?2йҸҲ?-->
    <g transform="translate(110,538) rotate(-1.8)">
      <rect x="0" y="0" width="195" height="26" rx="2" fill="#BF7CA8"/>
      <rect x="4" y="1" width="3" height="24" fill="#1A1C1E" opacity="0.3"/>
    </g>
    <!-- з»—?3йҸҲо„ҠзҙҷйҸӮж»ҲжҪ¬йҚҰг„ҘеҪёжёҡСҚзҙҡ -->
    <g transform="translate(305,710) rotate(18)">
      <rect x="0" y="0" width="22" height="130" rx="2" fill="#C49A6C"/>
      <rect x="1" y="4" width="20" height="3" fill="#1A1C1E" opacity="0.3"/>
    </g>
    <!-- з»—?4йҸҲо„ҠзҙҷйҸӮж»ҲжҪ¬йҚҰг„Ҙе”ҙжёҡСҚзҙҡ -->
    <g transform="translate(288,740) rotate(12)">
      <rect x="0" y="0" width="20" height="110" rx="2" fill="#7B9DBF"/>
      <rect x="1" y="4" width="18" height="3" fill="#1A1C1E" opacity="0.3"/>
    </g>
  </g>
  </g>

  <!-- йҸҲзғҳоқ«й–ҝоҶҫжҙҸ йҲҘ?йҗўе©ҡжҪ°ж¶“е¬«жҹҹж¶“о…ўжЈҝй”ӣеІҖв–јжҗҙеҝ“жҶійҗЁеӢ¬зҲЈи№Ү?-->
  <g transform="translate(720, 755) scale(1.2) translate(-720, -835)" opacity="0.12">
    <!-- й–ҝоҶҫжҙҸжҗҙжӣһйӘҮ -->
    <rect x="630" y="808" width="180" height="54" rx="5" fill="#4A4E53"/>
    <rect x="630" y="808" width="180" height="54" rx="5" fill="none" stroke="#6A6E73" stroke-width="0.5"/>

    <!-- ESC й–ҝоҮҶзҙҷйҗ”ж—ӮеҖқе§—ж¬Ҹе·ұз’ӢеҶҝзҙҡ -->
    <rect x="636" y="811" width="10" height="7" rx="1.5" fill="#E8853D"/>

    <!-- йҸҒжқҝз“§зҗӣ?йҲҘ?12 ж¶“оҒҲж•ӯ -->
    <g stroke="#6A6E73" stroke-width="7" stroke-linecap="round" stroke-dasharray="9.5,2.3" fill="none">
      <line x1="650" y1="820" x2="798" y2="820"/>
    </g>

    <!-- QWERTY зҗӣ?йҲҘ?12 ж¶“оҒҲж•ӯй”ӣе қд№ҸйҚӢеҝ•Р©й”ӣеұҫДҒйҺ·зҶјжЁҒе§ҠоҲҡз«·зҒһвӮ¬й”ӣ?-->
    <g stroke="#6A6E73" stroke-width="7" stroke-linecap="round" stroke-dasharray="9.5,2.3" fill="none">
      <line x1="655" y1="830" x2="798" y2="830"/>
    </g>

    <!-- ASDF зҗӣ?йҲҘ?11 ж¶“оҒҲж•ӯ -->
    <g stroke="#6A6E73" stroke-width="7" stroke-linecap="round" stroke-dasharray="10.5,2.5" fill="none">
      <line x1="650" y1="840" x2="798" y2="840"/>
    </g>

    <!-- Shift зҗӣ?йҲҘ?10 ж¶“оҒҲж•ӯ -->
    <g stroke="#6A6E73" stroke-width="7" stroke-linecap="round" stroke-dasharray="11.5,2.8" fill="none">
      <line x1="654" y1="850" x2="798" y2="850"/>
    </g>

    <!-- з»ҢзғҳзүёзҗӣеІӢзҙ°Ctrl Win Alt [з»Ңзғҳзүё] Alt Fn Ctrl -->
    <g fill="#6A6E73">
      <rect x="636" y="856" width="14" height="6" rx="1.5"/>
      <rect x="652" y="856" width="10" height="6" rx="1.5"/>
      <rect x="664" y="856" width="10" height="6" rx="1.5"/>
      <rect x="676" y="856" width="52" height="6" rx="1.5"/>
      <rect x="730" y="856" width="10" height="6" rx="1.5"/>
      <rect x="742" y="856" width="10" height="6" rx="1.5"/>
      <rect x="754" y="856" width="14" height="6" rx="1.5"/>
    </g>

  </g>

  <!-- =============================================================
       йҚ–жҘҒжһҹж¶“еҶ©ж§Ұз»ұоҲңРқйҗҗйҖӣеҜ’йҲ«жҺ—вӮ¬ж„ӘйҮңйҗ”еӢӯдјғйҚ”г„§ж•ҫй”ӣ?
         е§Јеҝӣж®§ 5 з»үжҺ‘оҳҝжөңоҶ»з«ҙжЈ°жҘҒж§Ұй”ӣе ңзІ е®ёп№ҖжӮңйҚҷзӯ№зҙқз»ұоҲңРқй”ӣеӨӣзҙқ
         е§Јеҝӣо•јйҸ„зҶ¶еҜ’ 40 з»үжҺ‘жӮ—йҗ”еӢӯдјғй”ӣ?
         йҺ¬иҜІжҮҶйҸҲ?70 з»үжҺӢвӮ¬?
       ============================================================= -->
  <style>
    /* е§Јеҝӣо•јйҸ„зҶәж®‘йҚ©е“„йӘҮйҚҷоҲқоқҶжҗҙ?*/
    .star { opacity: 0.30; }

    /* йҲҝзӢ…з¬Қ е§ЈеҝҺйҮңжқ©еӣЁжө®йҗҗйҖӣеЁҮйҗўг„§е«ӯз»”?keyframe selectorй”ӣ?
       й–¬еһ®еҺӨйҗ§жғ§еһҺе§Јж–ҝе•ҝз»җдҪёоҮұй‘·еӯҳзҘ»з‘ҷе қж«’жө ?0% зҒҸеҚһзҙ‘жҝ®е¬«з¬ҺйҚҷжЁәе§©йҗўжұҮвӮ¬?
       ж·ҮжҝҮеҜ”еЁҲз”өж•ӨйҚ“е¶„з«ҙж¶“оҒҶж«ЁйҚ’е—ҷеҒЈй”ӣеұҪеһҸйҺ№гҲЎоҶҢйҗўг„ҘжӮ—ж¶“вӮ¬ж¶“оҒҶж«ЁйҚ’е—ҷеҒЈй”ӣ?
       зәӯоҶ»з№ҡжөңоҶје®ізјҒеӯҳеҜ”йҸҒеӯҳоҶҢйҸғе •жҡұйҚҡеәЈзҒӣй—Ӯжқ‘еһҸйҺ№оқ¬вӮ¬?*/

    /* йҺҪеӣ§еҺң йҲҘ?жөң?0s~40sй”ӣеІҖдјғ 40s~70s */
    @keyframes glow-1 {
      0% { opacity: 0.85; }
      57.142% { opacity: 0.85; }
      57.143% { opacity: 0.30; }
      100% { opacity: 0.30; }
    }
    /* еҜ®вӮ¬й—ғ?йҲҘ?йҗҸ?0s~5sй”ӣеұјеҜ’ 5s~45sй”ӣеІҖдјғ 45s~70s */
    @keyframes glow-2 {
      0% { opacity: 0.30; }
      7.142% { opacity: 0.30; }
      7.143% { opacity: 0.85; }
      64.285% { opacity: 0.85; }
      64.286% { opacity: 0.30; }
      100% { opacity: 0.30; }
    }
    /* йҗңеӨҺгҖҖ йҲҘ?йҗҸ?0s~10sй”ӣеұјеҜ’ 10s~50sй”ӣеІҖдјғ 50s~70s */
    @keyframes glow-3 {
      0% { opacity: 0.30; }
      14.285% { opacity: 0.30; }
      14.286% { opacity: 0.85; }
      71.428% { opacity: 0.85; }
      71.429% { opacity: 0.30; }
      100% { opacity: 0.30; }
    }
    /* жҫ¶в•ӮжҪҲ йҲҘ?йҗҸ?0s~15sй”ӣеұјеҜ’ 15s~55sй”ӣеІҖдјғ 55s~70s */
    @keyframes glow-4 {
      0% { opacity: 0.30; }
      21.428% { opacity: 0.30; }
      21.429% { opacity: 0.85; }
      78.570% { opacity: 0.85; }
      78.571% { opacity: 0.30; }
      100% { opacity: 0.30; }
    }
    /* жҫ¶в•ғеё’ йҲҘ?йҗҸ?0s~20sй”ӣеұјеҜ’ 20s~60sй”ӣеІҖдјғ 60s~70s */
    @keyframes glow-5 {
      0% { opacity: 0.30; }
      28.570% { opacity: 0.30; }
      28.571% { opacity: 0.85; }
      85.713% { opacity: 0.85; }
      85.714% { opacity: 0.30; }
      100% { opacity: 0.30; }
    }
    /* жҫ¶в•ғжӢ  йҲҘ?йҗҸ?0s~25sй”ӣеұјеҜ’ 25s~65sй”ӣеІҖдјғ 65s~70s */
    @keyframes glow-6 {
      0% { opacity: 0.30; }
      35.713% { opacity: 0.30; }
      35.714% { opacity: 0.85; }
      92.856% { opacity: 0.85; }
      92.857% { opacity: 0.30; }
      100% { opacity: 0.30; }
    }
    /* жҫ¶в•ӮзҒ‘ йҲҘ?йҗҸ?0s~30sй”ӣеұјеҜ’ 30s~70sй”ӣе ңеҜ’ 40sй”ӣеІҖдјғйҚҰг„ҘжғҠйҗңоҲқз«ҹйҗЈеІӢзҙҡ */
    @keyframes glow-7 {
      0% { opacity: 0.30; }
      42.856% { opacity: 0.30; }
      42.857% { opacity: 0.85; }
      100% { opacity: 0.85; }
    }

    .star-1 { animation: glow-1 70s 5s infinite; }
    .star-2 { animation: glow-2 70s 5s infinite; }
    .star-3 { animation: glow-3 70s 5s infinite; }
    .star-4 { animation: glow-4 70s 5s infinite; }
    .star-5 { animation: glow-5 70s 5s infinite; }
    .star-6 { animation: glow-6 70s 5s infinite; }
    .star-7 { animation: glow-7 70s 5s infinite; }
  </style>

  <!-- йҚ–жҘҒжһҹж¶“еҶ©ж§Ұ йҲҘ?ж¶“з»ҳж§Ұй”ӣе ҹжҡЈжөЈж’ід№Ҹз»ү?216px жө гғҘз–„йҗңзүҲГӯйҚҡжҲқзңіж¶“о…Ёзҙҡ -->
  <g transform="translate(-216, 0)">
    <!-- йҗҹи·әеҺң (Alkaid) йҲҘ?йҸӮжҘҒз„әйҸҲ?(йҚҳзҶәеҒЈ) -->
    <g class="star star-1">
      <circle cx="710" cy="210" r="3" fill="#F0A05A"/>
      <text x="710" y="197" font-size="9" fill="#F0A05A" text-anchor="middle" font-family="sans-serif">йҗҹи·әеҺң</text>
    </g>
    <!-- еҜ®вӮ¬й—ғ?(Mizar)  2.2, -2 -->
    <g class="star star-2">
      <circle cx="810" cy="170" r="3" fill="#E8853D"/>
      <text x="810" y="157" font-size="9" fill="#E8853D" text-anchor="middle" font-family="sans-serif">еҜ®вӮ¬й—ғ?/text>
    </g>
    <!-- йҗңеӨҺгҖҖ (Alioth)  3.2, -1.8 -->
    <g class="star star-3">
      <circle cx="870" cy="172" r="3" fill="#F0A05A"/>
      <text x="870" y="159" font-size="9" fill="#F0A05A" text-anchor="middle" font-family="sans-serif">йҗңеӨҺгҖҖ</text>
    </g>
    <!-- жҫ¶в•ӮжҪҲ (Megrez)  5, -2.2 йҲҘ?йҸӮжӨҫи…‘йҸҲвӮ¬йҸҶ?-->
    <g class="star star-4">
      <circle cx="960" cy="170" r="2.5" fill="#E8853D"/>
      <text x="960" y="157" font-size="9" fill="#E8853D" text-anchor="middle" font-family="sans-serif">жҫ¶в•ӮжҪҲ</text>
    </g>
    <!-- жҫ¶в•ғеё’ (Phecda)  6, -0.4 -->
    <g class="star star-5">
      <circle cx="1010" cy="240" r="3" fill="#F0A05A"/>
      <text x="1010" y="227" font-size="9" fill="#F0A05A" text-anchor="middle" font-family="sans-serif">жҫ¶в•ғеё’</text>
    </g>
    <!-- жҫ¶в•ғжӢ  (Merak)  7.8, -2.4 -->
    <g class="star star-6">
      <circle cx="1130" cy="236" r="3" fill="#E8853D"/>
      <text x="1130" y="223" font-size="9" fill="#E8853D" text-anchor="middle" font-family="sans-serif">жҫ¶в•ғжӢ </text>
    </g>
    <!-- жҫ¶в•ӮзҒ‘ (Dubhe)  8.2, -3 йҲҘ?йҸӮжҘҖеҪӣйҸҲвӮ¬жөң?-->
    <g class="star star-7">
      <circle cx="1148" cy="162" r="3.5" fill="#F0A05A"/>
      <text x="1148" y="149" font-size="9" fill="#F0A05A" text-anchor="middle" font-family="sans-serif">жҫ¶в•ӮзҒ‘</text>
    </g>
  </g>
</svg>
