<svg xmlns="http://www.w3.org/2000/svg" viewBox="0 0 1440 900" width="1440" height="900">
  <!-- 远山 — 极淡墨色 -->
  <path d="M0,480 C120,400 200,420 320,380 C400,360 460,380 540,350 
           C620,320 700,360 800,340 C880,320 960,350 1040,330 
           C1120,310 1200,340 1320,320 C1380,310 1440,330 1440,330 
           L1440,900 L0,900 Z" 
        fill="#8A857E" opacity="0.08"/>
  <!-- 中景山 -->
  <path d="M0,550 C100,480 180,500 280,460 C360,440 420,460 500,430 
           C580,400 660,440 760,420 C840,400 920,430 1000,410 
           C1080,390 1160,420 1260,400 C1340,390 1440,420 1440,420 
           L1440,900 L0,900 Z" 
        fill="#5A5550" opacity="0.05"/>
  <!-- 近景山/岸 -->
  <path d="M0,650 C80,600 160,620 240,580 C320,560 400,600 500,570 
           C600,540 700,580 800,560 C880,540 960,570 1040,550 
           C1120,530 1200,560 1320,540 C1380,530 1440,550 1440,550 
           L1440,900 L0,900 Z" 
        fill="#8A857E" opacity="0.035"/>
  <!-- 一轮淡日 -->
  <circle cx="1100" cy="160" r="40" fill="#D4A050" opacity="0.06"/>
  <!-- 飞鸟点缀 -->
  <path d="M850,220 Q860,210 870,220 Q880,210 890,220" 
        fill="none" stroke="#5A5550" stroke-width="1.2" opacity="0.12"/>
  <path d="M1050,180 Q1060,170 1070,180 Q1080,170 1090,180" 
        fill="none" stroke="#5A5550" stroke-width="1.2" opacity="0.10"/>
  <path d="M780,250 Q790,240 800,250" 
        fill="none" stroke="#5A5550" stroke-width="1.2" opacity="0.08"/>
</svg>
