<svg xmlns="http://www.w3.org/2000/svg" viewBox="0 0 86 89" fill="none" stroke="currentColor" stroke-width="1.8">
  <path id="brain-path" d="M 40.73,8.48 C 44.89,10.81 44.05,9.97 44.89,11.80 45.72,13.63 42.56,12.30 45.72,10.14 48.88,7.98 46.05,7.31 50.21,7.81 54.36,8.31 57.19,8.15 57.69,7.81 58.19,7.48 59.52,11.30 59.68,11.30 59.85,11.30 62.01,11.80 62.01,11.80 62.01,11.80 65.17,12.47 65.17,12.47 65.17,12.47 67.33,12.30 67.66,12.63 67.99,12.97 70.49,14.46 70.65,14.46 70.82,14.46 71.98,15.79 71.98,16.13 71.98,16.46 72.82,18.29 72.82,18.29 72.82,18.29 72.32,19.78 72.32,19.78 72.32,19.78 75.31,20.78 75.64,20.78 77.53,18.97 83.79,25.52 81.46,28.59M 81.29,30.59 C 81.29,30.59 81.29,30.76 82.12,32.42 82.96,34.08 83.95,31.59 83.79,36.74 83.62,41.89 83.62,41.23 82.29,43.56 80.96,45.88 79.30,47.38 77.80,48.88 76.31,50.37 74.48,49.71 74.48,49.71M 16.13,36.74 C 16.13,36.74 12.80,35.74 12.80,35.74 12.80,35.74 11.30,35.91 11.30,36.41 11.30,36.91 11.80,39.40 11.80,39.23 11.80,39.07 13.80,40.06 13.80,40.06 13.80,40.06 14.80,38.24 14.80,38.24 14.80,38.24 16.13,36.74 16.13,36.74 Z M 20.78,37.24 C 20.78,37.24 26.10,37.24 26.43,37.24 26.77,37.24 32.58,36.91 32.58,36.91 32.58,36.91 37.57,37.07 37.57,37.07 37.57,37.07 42.56,31.59 42.56,31.59 42.56,31.59 42.89,14.13 42.89,14.13M 52.70,14.30 C 52.70,14.30 47.55,18.95 47.55,18.95 47.55,18.95 47.55,55.19 47.55,55.19 47.55,55.19 48.88,56.52 49.04,56.52 49.21,56.52 49.71,58.85 49.71,58.85 49.71,58.85 48.04,60.18 48.04,60.18 48.04,60.18 46.05,58.85 46.05,58.85 46.05,58.85 45.05,57.02 45.05,56.86M 57.69,15.46 C 57.69,15.46 58.85,14.46 59.52,15.13 60.18,18.12 59.35,19.28 59.35,19.28 59.35,19.28 56.69,18.79 56.69,18.79 56.69,18.79 57.69,15.46 57.69,15.46 Z M 58.85,20.61 C 58.85,20.61 53.86,26.27 53.86,26.27 53.86,26.27 52.87,38.40 52.87,38.40 52.87,38.40 72.98,39.07 72.98,39.07 72.98,39.07 74.81,36.74 74.81,36.74 74.81,36.74 76.31,37.57 76.31,37.57 76.31,37.57 76.80,40.40 76.80,40.40 76.80,40.40 75.47,41.23 75.47,41.23 75.47,41.23 73.31,40.23 73.31,40.23M 74.81,28.10 C 74.81,28.10 75.97,29.43 75.97,29.43 75.97,29.43 76.64,32.42 76.14,32.42 75.64,32.42 73.15,32.58 73.15,32.58 73.15,32.58 72.98,29.59 72.98,29.59 72.98,29.59 66.83,29.59 66.83,29.43 66.83,29.26 63.84,34.25 63.84,34.25M 65.67,23.44 C 65.67,23.44 67.00,20.95 67.00,20.95 67.00,20.95 70.32,21.94 70.32,21.94 70.32,21.94 69.49,23.94 69.49,23.94 69.49,23.94 65.67,23.44 65.67,23.44 Z M 58.19,31.92 C 58.19,31.92 61.68,27.93 61.68,27.93 61.68,27.93 64.50,25.77 64.50,25.77M 8.48,48.04 C 8.48,48.04 14.30,47.71 14.30,47.71 14.30,47.71 18.95,43.56 18.95,43.56 18.95,43.56 41.89,43.22 41.89,43.22 41.89,43.22 42.06,56.86 42.06,56.86 42.06,56.86 34.25,62.84 34.25,62.84 34.25,62.84 34.75,69.16 34.75,68.99 34.75,68.83 31.25,73.48 31.25,73.48M 15.13,56.19 C 15.13,56.19 12.63,57.02 12.63,57.02 12.63,57.02 11.14,54.53 11.14,54.36 11.14,54.20 13.47,52.87 13.47,52.87 13.47,52.87 15.63,54.69 15.63,54.69 15.63,54.69 19.78,55.03 19.78,55.03 19.78,55.03 26.77,50.37 26.77,50.37 26.77,50.37 36.74,49.71 36.74,49.54 36.74,49.37 36.41,51.37 36.41,51.37M 20.45,63.51 C 20.45,63.51 22.94,65.33 22.94,65.33 22.94,65.33 20.95,67.00 20.95,67.00 20.95,67.00 18.29,65.67 18.29,65.67 18.29,65.67 20.45,63.51 20.45,63.51 Z M 16.79,27.26 C 16.79,27.26 16.79,28.93 16.79,28.93 16.79,28.93 18.29,31.25 18.29,31.25 18.29,31.25 19.78,30.09 19.78,30.09 19.78,30.09 24.60,33.08 24.60,33.08 24.60,33.08 16.79,27.26 16.79,27.26 Z M 21.78,22.78 C 21.78,22.78 25.10,22.61 25.10,22.61 25.10,22.61 30.26,28.26 30.26,28.26 30.26,28.26 29.76,21.28 29.76,21.28 29.76,21.28 27.43,18.95 27.43,18.79 27.43,18.62 28.59,16.46 28.59,16.46 28.59,16.46 30.92,16.62 31.25,16.62 31.59,16.62 33.25,19.78 33.25,19.78M 37.41,17.62 C 37.41,17.62 34.91,15.29 34.91,15.29 34.91,15.29 37.07,12.63 37.07,12.63 37.07,12.63 38.40,13.63 38.40,13.63 38.40,13.63 38.40,16.13 38.40,16.13 38.40,16.13 37.41,17.62 37.41,17.62 Z M 36.57,27.76 C 36.57,27.76 32.58,32.25 32.58,32.25 32.58,32.25 36.57,27.76 36.57,27.76 Z M 74.31,50.87 C 62.84,50.87 60.18,50.87 61.34,50.54 62.51,50.21 62.18,57.02 62.18,57.02 62.18,57.02 60.01,60.68 60.01,60.68 60.01,60.68 59.52,62.01 57.19,62.84 54.86,63.67 47.21,63.67 47.21,63.67 47.21,63.67 43.89,65.33 43.89,65.33 43.89,65.33 45.05,64.50 42.23,66.83 39.57,69.16 41.39,69.32 41.06,70.99 40.73,72.65 46.05,70.99 39.57,74.48 37.07,76.97 32.75,78.13 32.75,78.13 32.75,78.13 33.91,80.63 26.60,79.13 19.28,77.64 15.79,74.81 15.96,75.31 16.13,75.81 13.30,69.82 13.30,69.82 13.30,69.82 12.80,64.17 12.80,64.17 12.80,64.17 6.98,64.00 6.15,60.18 5.32,56.36 3.16,55.53 3.49,54.36 3.82,53.20 4.82,51.04 4.82,50.70 4.82,50.37 4.65,47.38 4.65,47.38 4.65,47.38 3.16,46.05 2.99,45.55 2.83,45.05 2.66,38.57 2.66,38.57 2.66,38.57 -0.17,41.06 3.99,37.41 8.15,33.75 9.81,34.41 9.48,31.59 9.14,28.76 13.30,24.94 13.30,24.94 13.30,24.94 15.79,23.27 15.79,23.27 15.79,23.27 15.96,19.78 15.96,19.78 15.96,19.78 11.80,22.78 17.62,17.62 23.44,12.47 29.92,13.80 30.09,13.80 30.26,13.80 32.92,8.98 32.92,8.98 32.92,8.98 37.74,8.48 39.40,8.48"/>
</svg>
