<?xml version="1.0" encoding="UTF-8"?>
<svg version="1.1" xmlns="http://www.w3.org/2000/svg" width="64" height="64">
<path d="M0 0 C1.36125 0.804375 1.36125 0.804375 2.75 1.625 C6.91137537 6.0175629 9.82892424 10.94007666 10.171875 17.07421875 C10.09971347 19.12824504 10.01151135 21.18177875 9.90625 23.234375 C10.00575518 26.16977785 10.49503149 27.50156921 12.0625 29.9375 C14 33 14 33 13.75 35.9375 C13.5025 36.618125 13.255 37.29875 13 38 C11.02 38.495 11.02 38.495 9 39 C8.814375 40.546875 8.814375 40.546875 8.625 42.125 C7.23076923 50.76923077 7.23076923 50.76923077 4 54 C1.6171875 54.4140625 1.6171875 54.4140625 -1.125 54.625 C-2.03507812 54.69976562 -2.94515625 54.77453125 -3.8828125 54.8515625 C-4.58148438 54.90054688 -5.28015625 54.94953125 -6 55 C-6.33 56.32 -6.66 57.64 -7 59 C-8.65 59 -10.3 59 -12 59 C-11.34 56.69 -10.68 54.38 -10 52 C-11.32 51.67 -12.64 51.34 -14 51 C-14 50.01 -14 49.02 -14 48 C-13.26394531 48.144375 -12.52789062 48.28875 -11.76953125 48.4375 C-10.79371094 48.623125 -9.81789062 48.80875 -8.8125 49 C-7.36810547 49.2784375 -7.36810547 49.2784375 -5.89453125 49.5625 C-3.2065794 49.96877612 -0.71228981 50.07933572 2 50 C2.103125 48.80375 2.20625 47.6075 2.3125 46.375 C2.81043271 42.426604 3.84429605 39.39937931 6 36 C6.99 35.67 7.98 35.34 9 35 C8.34 33.865625 7.68 32.73125 7 31.5625 C4.6696675 26.97568357 4.578956 23.05252801 5 18 C4.505 19.1446875 4.505 19.1446875 4 20.3125 C1.55245748 23.60138526 -0.23311817 23.97771949 -4.01171875 25.1796875 C-6.99080281 26.40877915 -8.77791754 28.71786126 -11 31 C-12.299375 31.2475 -12.299375 31.2475 -13.625 31.5 C-14.40875 31.665 -15.1925 31.83 -16 32 C-17.04892238 33.63631892 -18.04906703 35.30485863 -19 37 C-21.6740203 39.10101595 -23.04284685 38.99846976 -26.5 38.875 C-30.28851648 37.92787088 -31.58063357 36.97768176 -34 34 C-34.33 33.67 -34.66 33.34 -35 33 C-34.57847656 33.58007812 -34.15695313 34.16015625 -33.72265625 34.7578125 C-27.9011713 43.05856515 -27.9011713 43.05856515 -28 48 C-28.82774501 51.72485254 -29.85403706 55.3614058 -31 59 C-32.65 59 -34.3 59 -36 59 C-35.67 58.030625 -35.34 57.06125 -35 56.0625 C-33.44873669 50.32857116 -32.63521961 45.59415176 -35.49609375 40.15625 C-36.71527405 38.27044929 -37.97277956 36.40868061 -39.2734375 34.578125 C-43.29922001 28.56677556 -43.79617714 23.08791848 -43 16 C-40.43313279 7.39967171 -36.03734087 2.24623239 -28.21875 -1.984375 C-19.14436294 -6.13814372 -8.41558058 -5.05642026 0 0 Z M-30 3 C-30.33 3.66 -30.66 4.32 -31 5 C-26.66770285 4.1395861 -26.66770285 4.1395861 -23 2 C-20.75183935 1.89995097 -18.50038093 1.87033116 -16.25 1.875 C-14.40148437 1.87113281 -14.40148437 1.87113281 -12.515625 1.8671875 C-9.53083273 1.97994632 -6.89401738 2.30411032 -4 3 C-8.43431085 -0.64246962 -11.93152217 -1.34727851 -17.69921875 -1.29296875 C-22.05131895 -0.7387964 -26.14379919 0.94035278 -30 3 Z M-32 5 C-32.99 5.99 -33.98 6.98 -35 8 C-34.67 8.66 -34.34 9.32 -34 10 C-33.01 9.01 -32.02 8.02 -31 7 C-31.33 6.34 -31.66 5.68 -32 5 Z M3 10 C3.33 11.65 3.66 13.3 4 15 C4.33 14.01 4.66 13.02 5 12 C4.34 11.34 3.68 10.68 3 10 Z M-37 12 C-37.33 13.32 -37.66 14.64 -38 16 C-37.34 15.67 -36.68 15.34 -36 15 C-36.33 14.01 -36.66 13.02 -37 12 Z M-39 19 C-39 20.65 -39 22.3 -39 24 C-38.67 24 -38.34 24 -38 24 C-38 22.35 -38 20.7 -38 19 C-38.33 19 -38.66 19 -39 19 Z " fill="#2D2D2D" transform="translate(48,5)"/>
<path d="M0 0 C3.75 1.3125 3.75 1.3125 7 3 C7.495 4.485 7.495 4.485 8 6 C8.99 6.33 9.98 6.66 11 7 C10.67 7.99 10.34 8.98 10 10 C8.68 9.34 7.36 8.68 6 8 C6.33 7.34 6.66 6.68 7 6 C6.01 6 5.02 6 4 6 C3.566875 6.86625 3.566875 6.86625 3.125 7.75 C2.08333333 9.83333333 1.04166667 11.91666667 0 14 C-0.33 14 -0.66 14 -1 14 C-1.39253254 9.55129785 -0.15305957 6.85756507 2 3 C-0.67550292 5.67550292 -0.83209389 7.94879894 -1.625 11.625 C-1.88539062 12.81351563 -2.14578125 14.00203125 -2.4140625 15.2265625 C-2.60742188 16.14179688 -2.80078125 17.05703125 -3 18 C-3.33 18 -3.66 18 -4 18 C-4 13.33333333 -4 8.66666667 -4 4 C-4.33 11.59 -4.66 19.18 -5 27 C-3.02 27 -1.04 27 1 27 C-1 29 -1 29 -3.4375 29.3125 C-6.22743542 29.75277469 -6.22743542 29.75277469 -7.5625 32.4375 C-8.036875 33.283125 -8.51125 34.12875 -9 35 C-11.67628856 37.10279816 -13.09695537 36.99829903 -16.5625 36.9375 C-20 36 -20 36 -21.6875 33.875 C-22.120625 32.92625 -22.55375 31.9775 -23 31 C-23.72580566 29.83123942 -24.45513598 28.66466222 -25.1875 27.5 C-26.90838414 24.17691339 -27.44046486 22.63383506 -27 19 C-26.67 19.66 -26.34 20.32 -26 21 C-22.20452079 20.03223902 -22.20452079 20.03223902 -19 18 C-17.31391034 17.92794489 -15.62499341 17.91613932 -13.9375 17.9375 C-13.01839844 17.94652344 -12.09929688 17.95554687 -11.15234375 17.96484375 C-10.44207031 17.97644531 -9.73179688 17.98804687 -9 18 C-9 18.66 -9 19.32 -9 20 C-10.5159375 20.185625 -10.5159375 20.185625 -12.0625 20.375 C-15.87937612 20.98085335 -19.31500112 21.87193912 -23 23 C-21.68 23.33 -20.36 23.66 -19 24 C-19.33 25.98 -19.66 27.96 -20 30 C-19.01 30 -18.02 30 -17 30 C-17.20625 29.05125 -17.4125 28.1025 -17.625 27.125 C-17.74875 26.09375 -17.8725 25.0625 -18 24 C-16 22 -16 22 -12.375 21.875 C-10.704375 21.936875 -10.704375 21.936875 -9 22 C-9.78697325 25.41021743 -10.87119943 28.68885166 -12 32 C-11.2884375 30.5459375 -11.2884375 30.5459375 -10.5625 29.0625 C-9 26 -9 26 -8 25 C-7.76807135 23.48530552 -7.58784762 21.96245438 -7.4375 20.4375 C-7.293125 18.973125 -7.14875 17.50875 -7 16 C-10.96 16 -14.92 16 -19 16 C-19 15.67 -19 15.34 -19 15 C-17.95199219 14.92652344 -17.95199219 14.92652344 -16.8828125 14.8515625 C-15.97273438 14.77679688 -15.06265625 14.70203125 -14.125 14.625 C-13.22007813 14.55539063 -12.31515625 14.48578125 -11.3828125 14.4140625 C-8.82058097 14.20431868 -8.82058097 14.20431868 -7 12 C-6.75684344 9.33050591 -6.75684344 9.33050591 -6.875 6.375 C-6.89304687 5.37210938 -6.91109375 4.36921875 -6.9296875 3.3359375 C-6.95289062 2.56507812 -6.97609375 1.79421875 -7 1 C-4.38722473 -0.30638764 -2.92386084 -0.25989874 0 0 Z " fill="#111111" transform="translate(38,7)"/>
<path d="M0 0 C-0.33 0.66 -0.66 1.32 -1 2 C-0.99129882 4.53639485 -0.86902789 7.05676645 -0.7421875 9.58984375 C-1 12 -1 12 -2.5078125 13.81640625 C-3.00023438 14.20699219 -3.49265625 14.59757812 -4 15 C-3.34 15.33 -2.68 15.66 -2 16 C-1.94600264 17.45792884 -1.90720823 18.91642712 -1.875 20.375 C-1.85179688 21.18710937 -1.82859375 21.99921875 -1.8046875 22.8359375 C-2 25 -2 25 -4 27 C-4.33 27.845625 -4.66 28.69125 -5 29.5625 C-6 32 -6 32 -8 33 C-6.95902388 29.13351728 -5.96301592 25.50538557 -4 22 C-6.31 22.33 -8.62 22.66 -11 23 C-11.68707555 25.49064888 -12 27.37886292 -12 30 C-12.99 30 -13.98 30 -15 30 C-14.67 28.02 -14.34 26.04 -14 24 C-15.32 24.33 -16.64 24.66 -18 25 C-18 24.01 -18 23.02 -18 22 C-13.126739 20.4087311 -9.19209404 19.78807779 -4 20 C-4 19.34 -4 18.68 -4 18 C-5.62580966 18.11398665 -7.25067157 18.24155659 -8.875 18.375 C-10.23238281 18.47941406 -10.23238281 18.47941406 -11.6171875 18.5859375 C-14.17941903 18.79568132 -14.17941903 18.79568132 -16 21 C-18.625 21.125 -18.625 21.125 -21 21 C-21.94785546 17.38091552 -22.18278595 15.47139535 -20.8125 11.9375 C-19.0553736 9.08974343 -17.13989632 6.56787559 -15 4 C-14.67 3.34 -14.34 2.68 -14 2 C-9.20867943 0.27512459 -5.07283639 -0.20705455 0 0 Z " fill="#090909" transform="translate(33,7)"/>
<path d="M0 0 C0 4.66666667 0 9.33333333 0 14 C0.12375 12.783125 0.2475 11.56625 0.375 10.3125 C0.78891306 6.93520941 1.54573451 4.10243305 3 1 C3.66 1 4.32 1 5 1 C4.835 1.78375 4.67 2.5675 4.5 3.375 C3.9376293 5.88208039 3.9376293 5.88208039 4 8 C4.6496875 7.01 4.6496875 7.01 5.3125 6 C5.869375 5.34 6.42625 4.68 7 4 C7.99 4 8.98 4 10 4 C10 4.66 10 5.32 10 6 C11.32 6 12.64 6 14 6 C16.13586678 9.20380017 16.23132175 10.01939967 16.125 13.6875 C16.10695313 14.49574219 16.08890625 15.30398437 16.0703125 16.13671875 C16.04710938 16.75160156 16.02390625 17.36648437 16 18 C15.37351562 18.25394531 14.74703125 18.50789063 14.1015625 18.76953125 C13.28429687 19.11371094 12.46703125 19.45789063 11.625 19.8125 C10.81289063 20.14894531 10.00078125 20.48539063 9.1640625 20.83203125 C6.69852542 21.94439082 6.69852542 21.94439082 5 25 C3.0546875 25.51171875 3.0546875 25.51171875 0.875 25.6875 C-0.40375 25.790625 -1.6825 25.89375 -3 26 C-2.89049976 22.0410768 -2.75978332 18.08313674 -2.625 14.125 C-2.5940625 12.99707031 -2.563125 11.86914062 -2.53125 10.70703125 C-2.49257813 9.63066406 -2.45390625 8.55429687 -2.4140625 7.4453125 C-2.3826416 6.45031738 -2.3512207 5.45532227 -2.31884766 4.43017578 C-2 2 -2 2 0 0 Z " fill="#1C1C1C" transform="translate(35,9)"/>
<path d="M0 0 C3.75 1.3125 3.75 1.3125 7 3 C7.33 3.99 7.66 4.98 8 6 C8.99 6.33 9.98 6.66 11 7 C10.67 7.99 10.34 8.98 10 10 C8.68 9.34 7.36 8.68 6 8 C6.33 7.34 6.66 6.68 7 6 C6.01 6 5.02 6 4 6 C3.566875 6.86625 3.566875 6.86625 3.125 7.75 C2.08333333 9.83333333 1.04166667 11.91666667 0 14 C-0.33 14 -0.66 14 -1 14 C-1.39253254 9.55129785 -0.15305957 6.85756507 2 3 C-0.67550292 5.67550292 -0.83209389 7.94879894 -1.625 11.625 C-1.88539062 12.81351563 -2.14578125 14.00203125 -2.4140625 15.2265625 C-2.60742188 16.14179688 -2.80078125 17.05703125 -3 18 C-3.33 18 -3.66 18 -4 18 C-4 13.33333333 -4 8.66666667 -4 4 C-4.04898438 4.99902344 -4.09796875 5.99804688 -4.1484375 7.02734375 C-4.22320312 8.31769531 -4.29796875 9.60804687 -4.375 10.9375 C-4.44460937 12.22527344 -4.51421875 13.51304688 -4.5859375 14.83984375 C-4.72257812 15.88269531 -4.85921875 16.92554688 -5 18 C-5.66 18.33 -6.32 18.66 -7 19 C-7 18.01 -7 17.02 -7 16 C-10.96 16 -14.92 16 -19 16 C-19 15.67 -19 15.34 -19 15 C-17.95199219 14.92652344 -17.95199219 14.92652344 -16.8828125 14.8515625 C-15.97273438 14.77679688 -15.06265625 14.70203125 -14.125 14.625 C-13.22007813 14.55539063 -12.31515625 14.48578125 -11.3828125 14.4140625 C-8.82058097 14.20431868 -8.82058097 14.20431868 -7 12 C-6.75684344 9.33050591 -6.75684344 9.33050591 -6.875 6.375 C-6.89304687 5.37210938 -6.91109375 4.36921875 -6.9296875 3.3359375 C-6.95289063 2.56507812 -6.97609375 1.79421875 -7 1 C-4.38722473 -0.30638764 -2.92386084 -0.25989874 0 0 Z " fill="#020203" transform="translate(38,7)"/>
<path d="M0 0 C1.74216797 0.02707031 1.74216797 0.02707031 3.51953125 0.0546875 C4.39996094 0.07789062 5.28039062 0.10109375 6.1875 0.125 C6.3828125 6.1796875 6.3828125 6.1796875 6.1875 8.125 C5.5275 8.785 4.8675 9.445 4.1875 10.125 C3.8575 10.970625 3.5275 11.81625 3.1875 12.6875 C2.1875 15.125 2.1875 15.125 0.1875 16.125 C1.22847612 12.25851728 2.22448408 8.63038557 4.1875 5.125 C1.8775 5.455 -0.4325 5.785 -2.8125 6.125 C-3.49957555 8.61564888 -3.8125 10.50386292 -3.8125 13.125 C-4.8025 13.125 -5.7925 13.125 -6.8125 13.125 C-6.4825 11.145 -6.1525 9.165 -5.8125 7.125 C-7.1325 7.455 -8.4525 7.785 -9.8125 8.125 C-9.8125 7.135 -9.8125 6.145 -9.8125 5.125 C-4.939239 3.5337311 -1.00459404 2.91307779 4.1875 3.125 C4.1875 2.465 4.1875 1.805 4.1875 1.125 C2.56169034 1.23898665 0.93682843 1.36655659 -0.6875 1.5 C-1.59242187 1.56960937 -2.49734375 1.63921875 -3.4296875 1.7109375 C-5.99191903 1.92068132 -5.99191903 1.92068132 -7.8125 4.125 C-9.1325 4.125 -10.4525 4.125 -11.8125 4.125 C-11.8125 3.465 -11.8125 2.805 -11.8125 2.125 C-7.73526266 0.17468308 -4.49557578 -0.09081971 0 0 Z " fill="#323332" transform="translate(24.8125,23.875)"/>
<path d="M0 0 C0.66 0 1.32 0 2 0 C1.835 0.78375 1.67 1.5675 1.5 2.375 C0.9376293 4.88208039 0.9376293 4.88208039 1 7 C1.433125 6.34 1.86625 5.68 2.3125 5 C2.869375 4.34 3.42625 3.68 4 3 C4.99 3 5.98 3 7 3 C7 3.66 7 4.32 7 5 C7.99 5.33 8.98 5.66 10 6 C10 6.99 10 7.98 10 9 C8.68 9.33 7.36 9.66 6 10 C7.32 10.33 8.64 10.66 10 11 C10 11.99 10 12.98 10 14 C6.04 13.67 2.08 13.34 -2 13 C-2.16682272 8.07872966 -2.24828052 4.49656104 0 0 Z " fill="#202120" transform="translate(38,10)"/>
<path d="M0 0 C3.63 0.66 7.26 1.32 11 2 C11 2.66 11 3.32 11 4 C12.98 4 14.96 4 17 4 C17 4.33 17 4.66 17 5 C13.7 5 10.4 5 7 5 C7 6.98 7 8.96 7 11 C5.35 11 3.7 11 2 11 C2.66 8.69 3.32 6.38 4 4 C2.68 3.67 1.36 3.34 0 3 C0 2.01 0 1.02 0 0 Z " fill="#343434" transform="translate(34,53)"/>
<path d="M0 0 C0.66 0.33 1.32 0.66 2 1 C1.21625 1.886875 0.4325 2.77375 -0.375 3.6875 C-4.30756856 8.47788096 -5.43242808 12.55284201 -5.33984375 18.71484375 C-4.7933241 22.38971728 -2.97015692 24.885881 -1 28 C-1.33 28.66 -1.66 29.32 -2 30 C-2.61875 29.01 -3.2375 28.02 -3.875 27 C-4.57625 26.01 -5.2775 25.02 -6 24 C-6.66 24 -7.32 24 -8 24 C-8 21.36 -8 18.72 -8 16 C-8.33 16 -8.66 16 -9 16 C-8.50269348 11.02693484 -7.44697666 7.36200187 -5 3 C-4.01 3 -3.02 3 -2 3 C-1.34 2.01 -0.68 1.02 0 0 Z M-6 7 C-6.33 8.32 -6.66 9.64 -7 11 C-6.34 10.67 -5.68 10.34 -5 10 C-5.33 9.01 -5.66 8.02 -6 7 Z " fill="#40403F" transform="translate(17,10)"/>
<path d="M0 0 C0.66 0 1.32 0 2 0 C2.08131463 1.43655854 2.13933559 2.8744483 2.1875 4.3125 C2.23970703 5.51326172 2.23970703 5.51326172 2.29296875 6.73828125 C2 9 2 9 0.9375 10.75 C-2.00791692 12.65026898 -4.72262349 12.52856071 -8.1875 12.6875 C-10.09595703 12.78611328 -10.09595703 12.78611328 -12.04296875 12.88671875 C-13.01878906 12.92410156 -13.99460937 12.96148437 -15 13 C-15 12.01 -15 11.02 -15 10 C-14.34 9.67 -13.68 9.34 -13 9 C-13 8.01 -13 7.02 -13 6 C-9.64404172 6.59927826 -7.62198774 7.84622436 -5 10 C-5 9.34 -5 8.68 -5 8 C-4.34 8 -3.68 8 -3 8 C-3 8.66 -3 9.32 -3 10 C-2.34 9.67 -1.68 9.34 -1 9 C-0.53348793 6.87423218 -0.53348793 6.87423218 -0.375 4.4375 C-0.30023438 3.61121094 -0.22546875 2.78492188 -0.1484375 1.93359375 C-0.09945313 1.29550781 -0.05046875 0.65742188 0 0 Z " fill="#383938" transform="translate(30,10)"/>
<path d="M0 0 C0.66 0.33 1.32 0.66 2 1 C1.03250577 3.15825637 0.21906689 4.7900609 -1.5 6.4375 C-4.81789079 9.89363624 -5.29158004 14.20019049 -5.625 18.8125 C-5.69976562 19.78832031 -5.77453125 20.76414062 -5.8515625 21.76953125 C-5.90054687 22.50558594 -5.94953125 23.24164062 -6 24 C-8.20849913 21.31825106 -8.97201356 20.24721354 -9.375 16.6875 C-8.67232099 9.77782306 -6.12526724 5.58576543 -1 1 C-0.67 0.67 -0.34 0.34 0 0 Z " fill="#272827" transform="translate(14,8)"/>
<path d="M0 0 C0.33 0 0.66 0 1 0 C1 2.31 1 4.62 1 7 C1.66 7 2.32 7 3 7 C4.32421875 8.6796875 4.32421875 8.6796875 5.6875 10.875 C6.14511719 11.59429687 6.60273438 12.31359375 7.07421875 13.0546875 C7.53248047 14.01761719 7.53248047 14.01761719 8 15 C7.67 15.66 7.34 16.32 7 17 C6.67 16.67 6.34 16.34 6 16 C5.34 16.66 4.68 17.32 4 18 C-2.70387244 7.81093394 -2.70387244 7.81093394 -3 1 C-2.34 1.66 -1.68 2.32 -1 3 C-0.67 2.01 -0.34 1.02 0 0 Z " fill="#292929" transform="translate(8,27)"/>
<path d="M0 0 C7.7276932 -0.31806054 13.93924474 -0.32270836 21 3 C20.01 3.33 19.02 3.66 18 4 C18 4.66 18 5.32 18 6 C15.37165487 5.57790813 12.7484538 5.13819591 10.125 4.6875 C9.37863281 4.56955078 8.63226563 4.45160156 7.86328125 4.33007812 C5.88942432 3.98331947 3.94106841 3.49860425 2 3 C1.34 2.01 0.68 1.02 0 0 Z " fill="#373837" transform="translate(26,1)"/>
<path d="M0 0 C3.78193805 0.52526917 6.3100737 1.21400491 9 4 C9.75 7.1875 9.75 7.1875 10 10 C3.42857143 6 3.42857143 6 2 2 C1.34 2 0.68 2 0 2 C0 1.34 0 0.68 0 0 Z " fill="#1F1F1F" transform="translate(44,5)"/>
<path d="M0 0 C0.82638376 2.89234315 1 4.88742431 1 8 C1.66 8 2.32 8 3 8 C1.125 11.875 1.125 11.875 0 13 C-1.84891946 13.23363881 -3.70488031 13.41303635 -5.5625 13.5625 C-7.08037109 13.68818359 -7.08037109 13.68818359 -8.62890625 13.81640625 C-9.41136719 13.87699219 -10.19382813 13.93757813 -11 14 C-11 13.34 -11 12.68 -11 12 C-8.03 11.01 -5.06 10.02 -2 9 C-1.855625 7.700625 -1.71125 6.40125 -1.5625 5.0625 C-1.125 1.125 -1.125 1.125 0 0 Z " fill="#3C3D3C" transform="translate(52,46)"/>
<path d="M0 0 C0 2.97 0 5.94 0 9 C-0.66 9 -1.32 9 -2 9 C-2 7.35 -2 5.7 -2 4 C-2.33 5.32 -2.66 6.64 -3 8 C-4.98 7.34 -6.96 6.68 -9 6 C-9 5.34 -9 4.68 -9 4 C-8.01 4 -7.02 4 -6 4 C-5.67 3.01 -5.34 2.02 -5 1 C-2 0 -2 0 0 0 Z " fill="#252525" transform="translate(29,9)"/>
<path d="M0 0 C0.66 0.66 1.32 1.32 2 2 C1.828125 4.75 1.828125 4.75 1.25 8 C0.97929688 9.60875 0.97929688 9.60875 0.703125 11.25 C0 14 0 14 -2 16 C-2.05402274 13.89611431 -2.09280256 11.79183286 -2.125 9.6875 C-2.14820313 8.51574219 -2.17140625 7.34398437 -2.1953125 6.13671875 C-2 3 -2 3 0 0 Z " fill="#0B0B0C" transform="translate(36,9)"/>
<path d="M0 0 C0.66 0 1.32 0 2 0 C1.25749403 4.08378283 0.17076699 8.01939223 -1 12 C4.445 11.505 4.445 11.505 10 11 C10 11.99 10 12.98 10 14 C6.04 13.67 2.08 13.34 -2 13 C-2.16682272 8.07872966 -2.24828052 4.49656104 0 0 Z " fill="#313231" transform="translate(38,10)"/>
<path d="M0 0 C3.96 0.33 7.92 0.66 12 1 C12 1.33 12 1.66 12 2 C8.7 2 5.4 2 2 2 C2 3.98 2 5.96 2 8 C1.01 8 0.02 8 -1 8 C-0.67 5.36 -0.34 2.72 0 0 Z " fill="#141414" transform="translate(39,56)"/>
<path d="M0 0 C1.32 0.66 2.64 1.32 4 2 C3.34 2.66 2.68 3.32 2 4 C1.28591666 5.98356483 0.61382258 7.98315437 0 10 C-0.33 9.34 -0.66 8.68 -1 8 C-1.66 8 -2.32 8 -3 8 C-2.25 2.25 -2.25 2.25 0 0 Z " fill="#1E1E1E" transform="translate(25,30)"/>
<path d="M0 0 C0.33 0 0.66 0 1 0 C1 1.98 1 3.96 1 6 C1.66 6 2.32 6 3 6 C2.67 7.65 2.34 9.3 2 11 C0.35 11 -1.3 11 -3 11 C-2.01 7.37 -1.02 3.74 0 0 Z " fill="#323232" transform="translate(15,53)"/>
<path d="M0 0 C3.35595828 0.59927826 5.37801226 1.84622436 8 4 C8 3.34 8 2.68 8 2 C8.66 2 9.32 2 10 2 C10.33 2.99 10.66 3.98 11 5 C7.37 5 3.74 5 0 5 C0 3.35 0 1.7 0 0 Z " fill="#252525" transform="translate(17,16)"/>
<path d="M0 0 C2 2.66666667 4 5.33333333 6 8 C5.67 8.66 5.34 9.32 5 10 C4.67 9.67 4.34 9.34 4 9 C3.34 9.66 2.68 10.32 2 11 C0.4375 9.4375 0.4375 9.4375 -1 7 C-0.6875 3.25 -0.6875 3.25 0 0 Z " fill="#373736" transform="translate(10,34)"/>
<path d="M0 0 C1.10370043 3.3111013 0.92673641 5.24748949 0.5625 8.6875 C0.40974609 10.17830078 0.40974609 10.17830078 0.25390625 11.69921875 C0.12822266 12.83810547 0.12822266 12.83810547 0 14 C-3.03084049 10.65536037 -3.03084049 10.65536037 -2.890625 7.67578125 C-2.67921875 6.89589844 -2.4678125 6.11601562 -2.25 5.3125 C-2.04890625 4.52488281 -1.8478125 3.73726562 -1.640625 2.92578125 C-1 1 -1 1 0 0 Z " fill="#0D0D0D" transform="translate(8,18)"/>
<path d="M0 0 C2.00841268 0.01421885 4.01537247 0.13420475 6.01953125 0.265625 C6.01953125 0.925625 6.01953125 1.585625 6.01953125 2.265625 C4.94703125 2.41 3.87453125 2.554375 2.76953125 2.703125 C0.10290176 3.10311942 -2.39446604 3.54154424 -4.98046875 4.265625 C-3.72152968 1.74774686 -2.88459378 0.38688832 0 0 Z " fill="#020303" transform="translate(22.98046875,24.734375)"/>
<path d="M0 0 C1.65 0.33 3.3 0.66 5 1 C5.33 3.31 5.66 5.62 6 8 C5.01 8 4.02 8 3 8 C3.33 6.02 3.66 4.04 4 2 C2.68 2.33 1.36 2.66 0 3 C0 2.01 0 1.02 0 0 Z " fill="#3D3D3D" transform="translate(15,29)"/>
<path d="M0 0 C0.33 0 0.66 0 1 0 C1 2.64 1 5.28 1 8 C0.34 8 -0.32 8 -1 8 C-1.33 8.66 -1.66 9.32 -2 10 C-1.85950482 8.52031676 -1.71245174 7.04125484 -1.5625 5.5625 C-1.48128906 4.73878906 -1.40007813 3.91507813 -1.31640625 3.06640625 C-1 1 -1 1 0 0 Z " fill="#161616" transform="translate(54,46)"/>
<path d="M0 0 C0.99 0.33 1.98 0.66 3 1 C2.34 1 1.68 1 1 1 C0.71125 1.5775 0.4225 2.155 0.125 2.75 C-0.91666667 4.83333333 -1.95833333 6.91666667 -3 9 C-3.33 9 -3.66 9 -4 9 C-4.25 6.75 -4.25 6.75 -4 4 C-2 1.6875 -2 1.6875 0 0 Z " fill="#0B0B0C" transform="translate(41,12)"/>
<path d="M0 0 C2.475 0.495 2.475 0.495 5 1 C5 1.99 5 2.98 5 4 C5.94978897 6.15028304 5.94978897 6.15028304 7 8 C5.2925002 6.71937515 3.62626404 5.38232443 2 4 C2 3.34 2 2.68 2 2 C1.34 2 0.68 2 0 2 C0 1.34 0 0.68 0 0 Z " fill="#2B2B2B" transform="translate(44,5)"/>
<path d="M0 0 C2.31 0 4.62 0 7 0 C7 0.66 7 1.32 7 2 C5.329375 2.2165625 5.329375 2.2165625 3.625 2.4375 C0.17857953 2.78372035 0.17857953 2.78372035 -2 4 C-1.34 2.68 -0.68 1.36 0 0 Z " fill="#040404" transform="translate(22,29)"/>
<path d="M0 0 C0.66 0 1.32 0 2 0 C2 1.65 2 3.3 2 5 C0.02 4.34 -1.96 3.68 -4 3 C-4 2.34 -4 1.68 -4 1 C-2.68 1.33 -1.36 1.66 0 2 C0 1.34 0 0.68 0 0 Z " fill="#3A3A3A" transform="translate(24,12)"/>
</svg>
