<?xml version="1.0" encoding="UTF-8"?>
<svg xmlns="http://www.w3.org/2000/svg" viewBox="31 -713 605 449" width="605" height="449">
  <path d="M318 -705 L337 -680 L334 -680 Q259 -680 197 -642 Q136 -604 119 -548 Q157 -567 192 -567 Q276 -567 326 -487 Q353 -588 426 -646 Q500 -705 601 -705 L606 -705 L626 -680 Q550 -679 485 -640 Q421 -601 407 -548 Q448 -567 481 -567 Q543 -567 588 -522 Q633 -477 633 -414 Q633 -351 589 -307 Q545 -263 481 -263 Q383 -263 337 -366 Q322 -320 282 -291 Q243 -263 194 -263 Q126 -263 80 -313 Q35 -364 35 -440 Q35 -552 117 -628 Q199 -705 318 -705" fill="black"/>
</svg>