<svg xmlns="http://www.w3.org/2000/svg" viewBox="0 0 1440 900" width="1440" height="900">
  <!-- 远山 — 夜色中更深的墨 -->
  <path d="M0,450 C120,370 200,390 320,350 C400,330 460,350 540,320 
           C620,290 700,330 800,310 C880,290 960,320 1040,300 
           C1120,280 1200,310 1320,290 C1380,280 1440,300 1440,300 
           L1440,900 L0,900 Z" 
        fill="#3A3530" opacity="0.15"/>
  <!-- 中景山 -->
  <path d="M0,520 C100,450 180,470 280,430 C360,410 420,430 500,400 
           C580,370 660,410 760,390 C840,370 920,400 1000,380 
           C1080,360 1160,390 1260,370 C1340,360 1440,390 1440,390 
           L1440,900 L0,900 Z" 
        fill="#2E2B28" opacity="0.10"/>
  <!-- 近景 -->
  <path d="M0,620 C80,570 160,590 240,550 C320,530 400,570 500,540 
           C600,510 700,550 800,530 C880,510 960,540 1040,520 
           C1120,500 1200,530 1320,510 C1380,500 1440,520 1440,520 
           L1440,900 L0,900 Z" 
        fill="#3A3530" opacity="0.06"/>
  <!-- 夜空中一轮淡月 -->
  <circle cx="1100" cy="160" r="40" fill="#ffffff" opacity="0.15"/>
  <!-- 飞鸟点缀 -->
  <path d="M850,220 Q860,210 870,220 Q880,210 890,220" 
        fill="none" stroke="#9C9690" stroke-width="1.2" opacity="0.12"/>
  <path d="M1050,190 Q1060,180 1070,190 Q1080,180 1090,190" 
        fill="none" stroke="#9C9690" stroke-width="1.2" opacity="0.10"/>
</svg>
