<svg xmlns="http://www.w3.org/2000/svg" viewBox="0 0 1440 900" width="1440" height="900">
  <defs>
    <!-- 阳光光斑发光滤镜 -->
    <filter id="sun-glow" x="-80%" y="-80%" width="260%" height="260%">
      <feGaussianBlur stdDeviation="4" result="blur"/>
      <feMerge>
        <feMergeNode in="blur"/>
        <feMergeNode in="blur"/>
        <feMergeNode in="SourceGraphic"/>
      </feMerge>
    </filter>

    <!-- 竹子组件 v1：叶稍上仰 -->
    <g id="bamboo">
      <rect x="-3" y="0" width="6" height="300" rx="2" fill="#5C9E5C" opacity="0.15"/>
      <rect x="-4" y="40" width="8" height="2" rx="1" fill="#7E9A74" opacity="0.12"/>
      <rect x="-4" y="100" width="8" height="2" rx="1" fill="#7E9A74" opacity="0.12"/>
      <rect x="-4" y="160" width="8" height="2" rx="1" fill="#7E9A74" opacity="0.12"/>
      <rect x="-4" y="220" width="8" height="2" rx="1" fill="#7E9A74" opacity="0.12"/>
      <rect x="-4" y="280" width="8" height="2" rx="1" fill="#7E9A74" opacity="0.12"/>
      <g transform="rotate(6, 3, 30)">
        <path d="M3,30 Q22,20 42,28 Q22,36 3,30" fill="#70B070" opacity="0.13"/>
      </g>
      <g transform="rotate(-10, -3, 80)">
        <path d="M-3,80 Q-22,70 -42,78 Q-22,86 -3,80" fill="#70B070" opacity="0.11"/>
      </g>
      <g transform="rotate(-4, 3, 140)">
        <path d="M3,140 Q22,130 42,138 Q22,146 3,140" fill="#70B070" opacity="0.13"/>
      </g>
      <g transform="rotate(8, -3, 200)">
        <path d="M-3,200 Q-22,190 -42,198 Q-22,206 -3,200" fill="#70B070" opacity="0.11"/>
      </g>
    </g>

    <!-- 竹子组件 v2：叶稍下垂 -->
    <g id="bamboo2">
      <rect x="-3" y="0" width="6" height="300" rx="2" fill="#5C9E5C" opacity="0.15"/>
      <rect x="-4" y="40" width="8" height="2" rx="1" fill="#7E9A74" opacity="0.12"/>
      <rect x="-4" y="100" width="8" height="2" rx="1" fill="#7E9A74" opacity="0.12"/>
      <rect x="-4" y="160" width="8" height="2" rx="1" fill="#7E9A74" opacity="0.12"/>
      <rect x="-4" y="220" width="8" height="2" rx="1" fill="#7E9A74" opacity="0.12"/>
      <rect x="-4" y="280" width="8" height="2" rx="1" fill="#7E9A74" opacity="0.12"/>
      <g transform="rotate(-5, 3, 30)">
        <path d="M3,30 Q22,20 42,28 Q22,36 3,30" fill="#70B070" opacity="0.13"/>
      </g>
      <g transform="rotate(8, -3, 80)">
        <path d="M-3,80 Q-22,70 -42,78 Q-22,86 -3,80" fill="#70B070" opacity="0.11"/>
      </g>
      <g transform="rotate(7, 3, 140)">
        <path d="M3,140 Q22,130 42,138 Q22,146 3,140" fill="#70B070" opacity="0.13"/>
      </g>
      <g transform="rotate(-6, -3, 200)">
        <path d="M-3,200 Q-22,190 -42,198 Q-22,206 -3,200" fill="#70B070" opacity="0.11"/>
      </g>
    </g>

    <!-- 竹子组件 v3：叶稍大角度 -->
    <g id="bamboo3">
      <rect x="-3" y="0" width="6" height="300" rx="2" fill="#5C9E5C" opacity="0.15"/>
      <rect x="-4" y="40" width="8" height="2" rx="1" fill="#7E9A74" opacity="0.12"/>
      <rect x="-4" y="100" width="8" height="2" rx="1" fill="#7E9A74" opacity="0.12"/>
      <rect x="-4" y="160" width="8" height="2" rx="1" fill="#7E9A74" opacity="0.12"/>
      <rect x="-4" y="220" width="8" height="2" rx="1" fill="#7E9A74" opacity="0.12"/>
      <rect x="-4" y="280" width="8" height="2" rx="1" fill="#7E9A74" opacity="0.12"/>
      <g transform="rotate(12, 3, 30)">
        <path d="M3,30 Q22,20 42,28 Q22,36 3,30" fill="#70B070" opacity="0.13"/>
      </g>
      <g transform="rotate(-15, -3, 80)">
        <path d="M-3,80 Q-22,70 -42,78 Q-22,86 -3,80" fill="#70B070" opacity="0.11"/>
      </g>
      <g transform="rotate(10, 3, 140)">
        <path d="M3,140 Q22,130 42,138 Q22,146 3,140" fill="#70B070" opacity="0.13"/>
      </g>
      <g transform="rotate(-12, -3, 200)">
        <path d="M-3,200 Q-22,190 -42,198 Q-22,206 -3,200" fill="#70B070" opacity="0.11"/>
      </g>
    </g>
  </defs>

  <!-- 题词：苏轼《定风波》左上角 -->
  <g font-family="'FangSong', 'KaiTi', 'STKaiti', 'SimSun', 'Noto Serif SC', serif" fill="#5C9E5C" opacity="0.28">
    <text x="30" y="180">
      <tspan x="30" dy="36">
        <tspan font-size="38" transform="rotate(5, 30, 180)">莫</tspan>
        <tspan font-size="22" transform="rotate(-8, 60, 172)" dy="-8">听</tspan>
        <tspan font-size="32" transform="rotate(12, 90, 188)" dy="8">穿</tspan>
        <tspan font-size="48" transform="rotate(-3, 120, 180)">林</tspan>
        <tspan font-size="28" transform="rotate(10, 150, 180)">打</tspan>
        <tspan font-size="20" transform="rotate(-12, 180, 180)">叶</tspan>
        <tspan font-size="32" transform="rotate(6, 210, 180)">声</tspan>
      </tspan>
      <tspan x="30" dy="33">
        <tspan font-size="24" transform="rotate(-6, 30, 243)" dy="38">何</tspan>
        <tspan font-size="34" transform="rotate(8, 60, 215)" dy="10">妨</tspan>
        <tspan font-size="26" transform="rotate(-10, 90, 207)" dy="2">吟</tspan>
        <tspan font-size="20" transform="rotate(4, 120, 207)" dy="2">啸</tspan>
        <tspan font-size="30" transform="rotate(-7, 150, 207)" dy="2">且</tspan>
        <tspan font-size="24" transform="rotate(13, 180, 207)" dy="2">徐</tspan>
        <tspan font-size="18" transform="rotate(-4, 210, 207)" dy="2">行</tspan>
      </tspan>
    </text>
  </g>

  <!-- 竹林：疏疏落落，远近交错 -->
  <g>
    <!-- 近丛（左侧，较大）—— 微风轻摆 -->
    <g>
      <animateTransform attributeName="transform" type="rotate"
        values="-0.6, 100, 890; 0.6, 100, 890; -0.6, 100, 890"
        dur="3.5s" repeatCount="indefinite"
        calcMode="spline" keySplines="0.4 0 0.6 1; 0.4 0 0.6 1"
        keyTimes="0; 0.5; 1"/>
      <use href="#bamboo" x="40" y="540" transform="scale(1.3)" />
      <use href="#bamboo2" x="100" y="560" transform="scale(1.1)" />
      <use href="#bamboo3" x="160" y="580" transform="scale(1.15)" />
    </g>

    <!-- 更远处 -->
    <use href="#bamboo" x="3400" y="660" transform="scale(0.4)" />
    <use href="#bamboo2" x="3800" y="640" transform="scale(0.35)" />
    <use href="#bamboo3" x="4250" y="680" transform="scale(0.3)" />
  </g>


  <!-- 阳光光斑：穿过竹叶缝隙的亮点，带发光效果，大小脉动 -->
  <g opacity="0.85" filter="url(#sun-glow)">
    <circle cx="80" cy="710" r="5" fill="#FFFFFF">
      <animate attributeName="r" values="5; 6.5; 5" dur="4s" repeatCount="indefinite"
        calcMode="spline" keySplines="0.4 0 0.6 1; 0.4 0 0.6 1" keyTimes="0; 0.5; 1"/>
    </circle>
    <circle cx="130" cy="680" r="3.5" fill="#FFFFFF">
      <animate attributeName="r" values="3.5; 2; 3.5" dur="3s" repeatCount="indefinite"
        calcMode="spline" keySplines="0.4 0 0.6 1; 0.4 0 0.6 1" keyTimes="0; 0.5; 1"/>
    </circle>
    <circle cx="60" cy="760" r="4" fill="#FFFFFF">
      <animate attributeName="r" values="4; 5.5; 4" dur="5s" repeatCount="indefinite"
        calcMode="spline" keySplines="0.4 0 0.6 1; 0.4 0 0.6 1" keyTimes="0; 0.5; 1"/>
    </circle>
    <circle cx="180" cy="730" r="2.5" fill="#FFFFFF">
      <animate attributeName="r" values="2.5; 1.5; 2.5" dur="3.5s" repeatCount="indefinite"
        calcMode="spline" keySplines="0.4 0 0.6 1; 0.4 0 0.6 1" keyTimes="0; 0.5; 1"/>
    </circle>

    <circle cx="280" cy="750" r="3" fill="#FFFFFF">
      <animate attributeName="r" values="3; 4.5; 3" dur="4.5s" repeatCount="indefinite"
        calcMode="spline" keySplines="0.4 0 0.6 1; 0.4 0 0.6 1" keyTimes="0; 0.5; 1"/>
    </circle>
    <circle cx="350" cy="780" r="2" fill="#FFFFFF">
      <animate attributeName="r" values="2; 3; 2" dur="3s" repeatCount="indefinite"
        calcMode="spline" keySplines="0.4 0 0.6 1; 0.4 0 0.6 1" keyTimes="0; 0.5; 1"/>
    </circle>
  </g>
</svg>
